<?xml version="1.0" encoding="utf-8"?>
<!-- Generator: Adobe Illustrator 21.0.0, SVG Export Plug-In . SVG Version: 6.00 Build 0)  -->
<svg version="1.1" id="Capa_1" xmlns="http://www.w3.org/2000/svg" xmlns:xlink="http://www.w3.org/1999/xlink" x="0px" y="0px"
	 viewBox="0 0 124 116.9" style="enable-background:new 0 0 124 116.9;" xml:space="preserve">
<style type="text/css">
	.st0{fill:#FFFFFF;}
</style>
<g>
	<g>
		<path class="st0" d="M59.2,49.5c0-5.3-3.2-13.6-9.3-13.6c-1.9,0-4,1-5.1,2.5C43.4,39.9,43,42,43,43.8c0,5,2.9,13.2,9.3,13.2
			c1.8,0,3.9-0.8,5-2.1C59,53.3,59.2,50.9,59.2,49.5z"/>
		<path class="st0" d="M113,59.5c0-28.8-23.4-52.2-52.2-52.2S8.7,30.7,8.7,59.5s23.4,52.2,52.2,52.2S113,88.3,113,59.5z M76.8,49.5
			h4v8.1h8.1v4h-8.1v8.1h-4v-8.1h-8.1v-4h8.1C76.8,57.6,76.8,49.5,76.8,49.5z M32.7,79.3c0-2.6,1.4-6.4,5.7-9
			c4.6-2.8,10.9-3.2,14.2-3.5c-1-1.4-2.2-2.8-2.2-5c0-1.3,0.4-1.9,0.7-2.9C50.3,59,49.4,59,48.7,59c-7.8,0-12.2-5.8-12.2-11.7
			c0-3.5,1.5-7.2,4.7-9.9c4.2-3.5,9.3-4,13.2-4h15.3L65,36h-4.6l0,0c1.7,1.4,5.3,4.3,5.3,10c0,5.4-3.1,8.1-6.3,10.6
			c-1,1-2.1,1.9-2.1,3.6c0,1.7,1.1,2.5,1.9,3.2l2.6,2.1c3.2,2.8,6.3,5.3,6.3,10.4c0,7-6.8,14.1-19.5,14.1
			C37.9,90,32.7,84.8,32.7,79.3z"/>
		<path class="st0" d="M55.1,69c-0.6-0.1-1-0.1-1.7-0.1c-0.7,0-4.7,0.1-7.8,1.3c-1.7,0.6-6.4,2.4-6.4,7.7c0,5.3,5.1,9,13.1,9
			c7.1,0,10.9-3.5,10.9-8.1C63.2,75.1,60.8,73,55.1,69z"/>
	</g>
</g>
</svg>
