<svg 
 xmlns="http://www.w3.org/2000/svg"
 xmlns:xlink="http://www.w3.org/1999/xlink"
 width="67px" height="67px">
<path fill-rule="evenodd"  fill="rgb(11, 68, 119)"
 d="M65.003,45.879 L47.130,63.628 L38.097,66.074 L37.493,66.674 C37.266,66.899 36.969,67.012 36.672,67.012 C36.378,67.012 36.085,66.899 35.860,66.680 L35.838,66.685 L35.844,66.662 C35.399,66.212 35.400,65.490 35.851,65.042 L36.454,64.444 L38.917,55.473 L56.791,37.724 C58.101,36.424 60.384,36.424 61.694,37.724 L65.003,41.011 C66.354,42.353 66.354,44.536 65.003,45.879 ZM39.148,63.399 L44.290,62.006 L40.551,58.292 L39.148,63.399 ZM41.598,56.071 L46.526,60.964 L58.421,49.152 L53.494,44.259 L41.598,56.071 ZM63.361,42.641 L60.051,39.355 C59.619,38.924 58.865,38.924 58.433,39.355 L55.136,42.629 L60.063,47.522 L63.361,44.248 C63.806,43.805 63.806,43.083 63.361,42.641 ZM49.759,35.563 C49.118,35.563 48.598,35.048 48.598,34.410 L48.598,9.039 L40.468,9.039 L40.468,11.346 C40.468,11.983 39.948,12.499 39.307,12.499 L12.596,12.499 C11.955,12.499 11.435,11.983 11.435,11.346 L11.435,9.039 L3.306,9.039 L3.306,64.393 L30.016,64.393 C30.659,64.393 31.178,64.908 31.178,65.546 C31.178,66.184 30.657,66.699 30.016,66.699 L2.144,66.699 C1.503,66.699 0.983,66.184 0.983,65.546 L0.983,7.886 C0.983,7.249 1.503,6.733 2.144,6.733 L11.435,6.733 L11.435,4.427 C11.435,3.789 11.955,3.273 12.596,3.273 L19.564,3.273 L19.564,2.120 C19.564,1.483 20.085,0.967 20.726,0.967 L31.178,0.967 C31.819,0.967 32.339,1.483 32.339,2.120 L32.339,3.273 L39.307,3.273 C39.948,3.273 40.468,3.789 40.468,4.427 L40.468,6.733 L49.759,6.733 C50.400,6.733 50.920,7.249 50.920,7.886 L50.920,34.410 C50.920,35.048 50.400,35.563 49.759,35.563 ZM30.016,4.427 L30.016,3.273 L21.887,3.273 L21.887,4.427 L21.887,5.580 L30.016,5.580 L30.016,4.427 ZM38.146,7.886 L38.146,5.580 L32.339,5.580 L32.339,6.733 C32.339,7.371 31.819,7.886 31.178,7.886 L20.726,7.886 C20.085,7.886 19.564,7.371 19.564,6.733 L19.564,5.580 L13.758,5.580 L13.758,7.886 L13.758,10.193 L38.146,10.193 L38.146,7.886 ZM9.112,52.861 L24.210,52.861 C24.851,52.861 25.371,53.376 25.371,54.014 C25.371,54.652 24.851,55.167 24.210,55.167 L9.112,55.167 C8.471,55.167 7.951,54.652 7.951,54.014 C7.951,53.376 8.471,52.861 9.112,52.861 ZM39.307,41.329 L9.112,41.329 C8.471,41.329 7.951,40.813 7.951,40.176 C7.951,39.538 8.471,39.023 9.112,39.023 L39.307,39.023 C39.948,39.023 40.468,39.538 40.468,40.176 C40.468,40.813 39.948,41.329 39.307,41.329 ZM9.112,20.572 C8.471,20.572 7.951,20.056 7.951,19.418 C7.951,18.781 8.471,18.265 9.112,18.265 L24.210,18.265 C24.851,18.265 25.371,18.781 25.371,19.418 C25.371,20.056 24.851,20.572 24.210,20.572 L9.112,20.572 ZM26.532,26.338 C26.532,26.975 26.012,27.491 25.371,27.491 L9.112,27.491 C8.471,27.491 7.951,26.975 7.951,26.338 C7.951,25.700 8.471,25.184 9.112,25.184 L25.371,25.184 C26.012,25.184 26.532,25.700 26.532,26.338 ZM29.192,27.155 C28.983,26.937 28.855,26.649 28.855,26.336 C28.855,26.036 28.983,25.737 29.192,25.517 C29.621,25.091 30.399,25.091 30.841,25.517 C31.050,25.737 31.178,26.036 31.178,26.336 C31.178,26.636 31.050,26.937 30.841,27.155 C30.621,27.364 30.318,27.489 30.016,27.489 C29.714,27.489 29.412,27.364 29.192,27.155 ZM42.791,27.491 L34.662,27.491 C34.021,27.491 33.500,26.975 33.500,26.338 C33.500,25.700 34.021,25.184 34.662,25.184 L42.791,25.184 C43.432,25.184 43.952,25.700 43.952,26.338 C43.952,26.975 43.433,27.491 42.791,27.491 ZM42.791,34.566 L9.112,34.566 C8.471,34.566 7.951,34.050 7.951,33.412 C7.951,32.775 8.471,32.259 9.112,32.259 L42.791,32.259 C43.433,32.259 43.952,32.775 43.952,33.412 C43.952,34.050 43.432,34.566 42.791,34.566 ZM7.951,47.095 C7.951,46.457 8.471,45.942 9.112,45.942 L34.662,45.942 C35.304,45.942 35.823,46.457 35.823,47.095 C35.823,47.733 35.303,48.248 34.662,48.248 L9.112,48.248 C8.471,48.248 7.951,47.733 7.951,47.095 Z"/>
</svg>