<svg 
 xmlns="http://www.w3.org/2000/svg"
 xmlns:xlink="http://www.w3.org/1999/xlink"
 width="10px" height="15px">
<path fill-rule="evenodd"  fill="rgb(153, 153, 153)"
 d="M8.534,2.136 C6.586,0.117 3.414,0.117 1.465,2.136 C-0.479,4.151 -0.490,7.599 1.440,10.158 C1.442,10.161 1.444,10.164 1.446,10.167 L4.755,14.257 C4.816,14.332 4.906,14.375 5.000,14.375 C5.094,14.375 5.184,14.332 5.245,14.257 L8.553,10.167 C8.556,10.164 8.558,10.161 8.560,10.158 C10.490,7.599 10.479,4.151 8.534,2.136 ZM6.745,5.798 C6.745,6.795 5.962,7.606 5.000,7.606 C4.038,7.606 3.255,6.795 3.255,5.798 C3.255,4.801 4.038,3.990 5.000,3.990 C5.962,3.990 6.745,4.801 6.745,5.798 Z"/>
</svg>