<svg xmlns="http://www.w3.org/2000/svg" width="62" height="67" viewBox="0 0 62 67">
  <metadata><?xpacket begin="﻿" id="W5M0MpCehiHzreSzNTczkc9d"?>
<x:xmpmeta xmlns:x="adobe:ns:meta/" x:xmptk="Adobe XMP Core 5.6-c138 79.159824, 2016/09/14-01:09:01        ">
   <rdf:RDF xmlns:rdf="http://www.w3.org/1999/02/22-rdf-syntax-ns#">
      <rdf:Description rdf:about=""/>
   </rdf:RDF>
</x:xmpmeta>
                                                                                                    
                                                                                                    
                                                                                                    
                                                                                                    
                                                                                                    
                                                                                                    
                                                                                                    
                                                                                                    
                                                                                                    
                                                                                                    
                                                                                                    
                                                                                                    
                                                                                                    
                                                                                                    
                                                                                                    
                                                                                                    
                                                                                                    
                                                                                                    
                                                                                                    
                                                                                                    
                           
<?xpacket end="w"?></metadata>
<defs>
    <style>
      .cls-1 {
        fill: #0b4477;
        fill-rule: evenodd;
      }
    </style>
  </defs>
  <path id="シェイプ_15" data-name="シェイプ 15" class="cls-1" d="M933.764,1605.01l-21.652-.28-0.031-13.52a1.21,1.21,0,0,0-1.219-1.21H874.234a1.213,1.213,0,0,0-1.223,1.21v64.57a1.217,1.217,0,0,0,1.227,1.22h59.531a1.211,1.211,0,0,0,1.219-1.21v-49.84A1.009,1.009,0,0,0,933.764,1605.01ZM910,1655H875l-0.011-63.01L910,1592v63Zm22.988,0.01H911.966l0.065-48.12H933ZM918.176,1614h8.654a1.009,1.009,0,1,0,0-1.99h-8.654A1.092,1.092,0,0,0,917,1613,1.107,1.107,0,0,0,918.176,1614Zm0,6.99h8.654a1.009,1.009,0,1,0,0-1.99h-8.654A1.009,1.009,0,1,0,918.176,1620.99Zm0,7.01h8.654a1.018,1.018,0,1,0,0-2.01h-8.654A1.018,1.018,0,1,0,918.176,1628Zm0,7h8.654a1.009,1.009,0,1,0,0-1.99h-8.654A1.009,1.009,0,1,0,918.176,1635Zm0,7.01h8.654a1.022,1.022,0,1,0,0-2.02h-8.654A1.022,1.022,0,1,0,918.176,1642.01Zm0,7h8.654a1.022,1.022,0,1,0,0-2.02h-8.654A1.022,1.022,0,1,0,918.176,1649.01Zm-37.17,0a1.094,1.094,0,0,0,1-1.18v-2.63a1.014,1.014,0,1,0-2,0v2.63A1.107,1.107,0,0,0,881.006,1649.01Zm8,0a1.094,1.094,0,0,0,1-1.18v-2.63a1.013,1.013,0,1,0-2,0v2.63A1.106,1.106,0,0,0,889,1649.01Zm6.988,0a1.093,1.093,0,0,0,1-1.18v-2.63a1.013,1.013,0,1,0-2,0v2.63A1.113,1.113,0,0,0,895.991,1649.01Zm8,0a1.094,1.094,0,0,0,1-1.18v-2.63a1.186,1.186,0,0,0-1.206-1.18c-0.668,0-.794.52-0.794,1.18v2.63A1.107,1.107,0,0,0,903.988,1649.01Zm-22.982-9a1.094,1.094,0,0,0,1-1.18v-2.63a1.014,1.014,0,1,0-2,0v2.63A1.107,1.107,0,0,0,881.006,1640.01Zm8,0a1.094,1.094,0,0,0,1-1.18v-2.63a1.013,1.013,0,1,0-2,0v2.63A1.106,1.106,0,0,0,889,1640.01Zm6.988,0a1.093,1.093,0,0,0,1-1.18v-2.63a1.013,1.013,0,1,0-2,0v2.63A1.113,1.113,0,0,0,895.991,1640.01Zm8,0a1.094,1.094,0,0,0,1-1.18v-2.63a1.186,1.186,0,0,0-1.206-1.18c-0.668,0-.794.52-0.794,1.18v2.63A1.107,1.107,0,0,0,903.988,1640.01Zm-22.982-9a1.094,1.094,0,0,0,1-1.18v-2.63a1.014,1.014,0,1,0-2,0v2.63A1.107,1.107,0,0,0,881.006,1631.01Zm8,0a1.094,1.094,0,0,0,1-1.18v-2.63a1.013,1.013,0,1,0-2,0v2.63A1.106,1.106,0,0,0,889,1631.01Zm6.988,0a1.093,1.093,0,0,0,1-1.18v-2.63a1.013,1.013,0,1,0-2,0v2.63A1.113,1.113,0,0,0,895.991,1631.01Zm8,0a1.094,1.094,0,0,0,1-1.18v-2.63a1.186,1.186,0,0,0-1.206-1.18c-0.668,0-.794.52-0.794,1.18v2.63A1.107,1.107,0,0,0,903.988,1631.01Zm-22.982-9a1.094,1.094,0,0,0,1-1.18v-2.63a1.014,1.014,0,1,0-2,0v2.63A1.107,1.107,0,0,0,881.006,1622.01Zm8,0a1.094,1.094,0,0,0,1-1.18v-2.63a1.013,1.013,0,1,0-2,0v2.63A1.106,1.106,0,0,0,889,1622.01Zm6.988,0a1.093,1.093,0,0,0,1-1.18v-2.63a1.013,1.013,0,1,0-2,0v2.63A1.113,1.113,0,0,0,895.991,1622.01Zm8,0a1.094,1.094,0,0,0,1-1.18v-2.63a1.186,1.186,0,0,0-1.206-1.18c-0.668,0-.794.52-0.794,1.18v2.63A1.107,1.107,0,0,0,903.988,1622.01Zm-22.982-9a1.094,1.094,0,0,0,1-1.18v-2.63a1.014,1.014,0,1,0-2,0v2.63A1.107,1.107,0,0,0,881.006,1613.01Zm8,0a1.094,1.094,0,0,0,1-1.18v-2.63a1.013,1.013,0,1,0-2,0v2.63A1.106,1.106,0,0,0,889,1613.01Zm6.988,0a1.093,1.093,0,0,0,1-1.18v-2.63a1.013,1.013,0,1,0-2,0v2.63A1.113,1.113,0,0,0,895.991,1613.01Zm8,0a1.094,1.094,0,0,0,1-1.18v-2.63a1.186,1.186,0,0,0-1.206-1.18c-0.668,0-.794.52-0.794,1.18v2.63A1.107,1.107,0,0,0,903.988,1613.01Zm-22.982-9a1.094,1.094,0,0,0,1-1.18v-2.63a1.014,1.014,0,1,0-2,0v2.63A1.107,1.107,0,0,0,881.006,1604.01Zm8,0a1.094,1.094,0,0,0,1-1.18v-2.63a1.013,1.013,0,1,0-2,0v2.63A1.106,1.106,0,0,0,889,1604.01Zm6.988,0a1.093,1.093,0,0,0,1-1.18v-2.63a1.013,1.013,0,1,0-2,0v2.63A1.113,1.113,0,0,0,895.991,1604.01Zm8,0a1.094,1.094,0,0,0,1-1.18v-2.63a1.186,1.186,0,0,0-1.206-1.18c-0.668,0-.794.52-0.794,1.18v2.63A1.107,1.107,0,0,0,903.988,1604.01Z" transform="translate(-873 -1590)"/>
</svg>
