<svg xmlns="http://www.w3.org/2000/svg" width="65.031" height="66" viewBox="0 0 65.031 66">
  <metadata><?xpacket begin="﻿" id="W5M0MpCehiHzreSzNTczkc9d"?>
<x:xmpmeta xmlns:x="adobe:ns:meta/" x:xmptk="Adobe XMP Core 5.6-c138 79.159824, 2016/09/14-01:09:01        ">
   <rdf:RDF xmlns:rdf="http://www.w3.org/1999/02/22-rdf-syntax-ns#">
      <rdf:Description rdf:about=""/>
   </rdf:RDF>
</x:xmpmeta>
                                                                                                    
                                                                                                    
                                                                                                    
                                                                                                    
                                                                                                    
                                                                                                    
                                                                                                    
                                                                                                    
                                                                                                    
                                                                                                    
                                                                                                    
                                                                                                    
                                                                                                    
                                                                                                    
                                                                                                    
                                                                                                    
                                                                                                    
                                                                                                    
                                                                                                    
                                                                                                    
                           
<?xpacket end="w"?></metadata>
<defs>
    <style>
      .cls-1 {
        fill: #0b4477;
        fill-rule: evenodd;
      }
    </style>
  </defs>
  <path id="シェイプ_3" data-name="シェイプ 3" class="cls-1" d="M538,1629.01l-3.309-3.29a3.569,3.569,0,0,0-4.9,0l-17.874,17.75-2.464,8.97-0.6.6a1.144,1.144,0,0,0-.007,1.62l-0.006.03,0.022-.01a1.157,1.157,0,0,0,.812.33,1.144,1.144,0,0,0,.821-0.34l0.6-.6,9.033-2.44L538,1633.88A3.432,3.432,0,0,0,538,1629.01ZM514.6,1644.07l11.9-11.81,4.927,4.89-11.9,11.81Zm-1.047,2.22,3.739,3.72-5.142,1.39Zm22.809-14.04-3.3,3.27-4.927-4.89,3.3-3.28a1.176,1.176,0,0,1,1.618,0l3.309,3.29A1.136,1.136,0,0,1,536.36,1632.25Zm-54.168-3.26h30.629a1.013,1.013,0,1,0,0-2H482.192A1.013,1.013,0,1,0,482.192,1628.99Zm25.652,5.01H482.18a1.012,1.012,0,1,0,0,2h25.664A1.012,1.012,0,1,0,507.844,1634Zm-25.7-25.99h14.719a1.008,1.008,0,1,0,0-2H482.145A1.008,1.008,0,1,0,482.145,1608.01Zm14.719,35a1.017,1.017,0,1,0,0-2.02H482.145a1.017,1.017,0,1,0,0,2.02h14.719Zm18.989-23H482.175a1.007,1.007,0,1,0,0,1.99h33.678A1.007,1.007,0,1,0,515.853,1620.01Zm-33.678-5.02h16.258a1.007,1.007,0,1,0,0-1.99H482.175A1.007,1.007,0,1,0,482.175,1614.99Zm34.84-1a1.085,1.085,0,0,0-1.162-.99h-8.129a1.007,1.007,0,1,0,0,1.99h8.129A1.084,1.084,0,0,0,517.015,1613.99Zm-13.112.71a0.981,0.981,0,0,0,.337-0.71,0.96,0.96,0,0,0-.337-0.7,1.364,1.364,0,0,0-1.649,0,0.906,0.906,0,0,0,0,1.41A1.317,1.317,0,0,0,503.9,1614.7Zm-2.07,37.3H476v-55h8v3a0.9,0.9,0,0,0,1,1h27.468c0.646,0,1.532-.34,1.532-1v-3h8l0,24.86a0.979,0.979,0,1,0,1.931,0l0.08-25.68A1.073,1.073,0,0,0,523,1595h-9v-2c0-.66-0.315-2-1-2l-7.868-.01V1590a0.84,0.84,0,0,0-.863-1H493.728c-0.647,0-.728.34-0.728,1l-0.006,1.01-7.387-.02c-0.679,0-1.607.27-1.607,1.01v3l-8.867.01a1.14,1.14,0,0,0-1.119,1.16v56.68a1.157,1.157,0,0,0,1.153,1.16h27.664a1.16,1.16,0,0,0,1.159-1.16C503.99,1652.21,502.474,1652,501.833,1652ZM495,1591l8.1,0.4v1.2L503,1594h-8l-0.1-1.4Zm-8.987,1.99h6.981L493,1595c0,0.66.083,1.01,0.74,1.01H503.8a1.162,1.162,0,0,0,1.2-1.13v-1.89l7,0.01v6l-25.987.01v-6.02Z" transform="translate(-474 -1589)"/>
</svg>
