<svg xmlns="http://www.w3.org/2000/svg" width="73" height="80" viewBox="0 0 73 80">
  <metadata><?xpacket begin="﻿" id="W5M0MpCehiHzreSzNTczkc9d"?>
<x:xmpmeta xmlns:x="adobe:ns:meta/" x:xmptk="Adobe XMP Core 5.6-c138 79.159824, 2016/09/14-01:09:01        ">
   <rdf:RDF xmlns:rdf="http://www.w3.org/1999/02/22-rdf-syntax-ns#">
      <rdf:Description rdf:about=""/>
   </rdf:RDF>
</x:xmpmeta>
                                                                                                    
                                                                                                    
                                                                                                    
                                                                                                    
                                                                                                    
                                                                                                    
                                                                                                    
                                                                                                    
                                                                                                    
                                                                                                    
                                                                                                    
                                                                                                    
                                                                                                    
                                                                                                    
                                                                                                    
                                                                                                    
                                                                                                    
                                                                                                    
                                                                                                    
                                                                                                    
                           
<?xpacket end="w"?></metadata>
<defs>
    <style>
      .cls-1 {
        fill: #0b4477;
        fill-rule: evenodd;
      }
    </style>
  </defs>
  <path id="シェイプ_16" data-name="シェイプ 16" class="cls-1" d="M1101.92,1621.02h-14.17v-2.2l5.61-5.68a41.43,41.43,0,0,0,3.35-3.67,9.081,9.081,0,0,0,1.23-2.13,5.961,5.961,0,0,0,.4-2.22,3.473,3.473,0,0,0-1.01-2.65,3.857,3.857,0,0,0-2.77-.96,7.186,7.186,0,0,0-2.5.44,10.849,10.849,0,0,0-2.66,1.6l-1.4-1.77a10,10,0,0,1,6.56-2.53,6.966,6.966,0,0,1,4.74,1.54,5.243,5.243,0,0,1,1.75,4.17,7.512,7.512,0,0,1-.51,2.73,11.558,11.558,0,0,1-1.54,2.67,37.658,37.658,0,0,1-3.44,3.72l-4.47,4.42v0.11h10.83v2.41Zm18.11-4.87h-3.11v4.87h-2.56v-4.87H1104.1v-2.25l10.08-14.46h2.74v14.33h3.11v2.38Zm-5.67-2.38v-6.75c0-1.34.05-2.93,0.16-4.76h-0.13c-0.11.26-.3,0.64-0.57,1.15a10.439,10.439,0,0,1-.72,1.2l-6.42,9.16h7.68Zm-11.65,28.04h-1.77v-6.56h-7.2v6.56h-1.77v-14.07h1.77v5.95h7.2v-5.95h1.77v14.07Zm5.61-5.81v5.81h-1.77v-14.07h3.87a6.138,6.138,0,0,1,3.87,1,3.6,3.6,0,0,1,1.25,2.99,3.735,3.735,0,0,1-2.81,3.78l3.85,6.3h-2.07l-3.39-5.81h-2.8Zm0-1.5h2.1a3.792,3.792,0,0,0,2.5-.68,2.466,2.466,0,0,0,.79-2,2.306,2.306,0,0,0-.8-1.94,4.331,4.331,0,0,0-2.58-.61h-2.01v5.23Zm-1.69,27.5h-6.53a4.8,4.8,0,0,1,0-9.59h6.53A4.8,4.8,0,1,1,1106.63,1662Zm-6.53-7.63a2.841,2.841,0,0,0,0,5.67h6.53a2.839,2.839,0,1,0,0-5.67h-6.53Zm35.82-14.4h-3.37c-4.06,0-7.36-3.6-7.36-8.03v-9.64c0-4.42,3.3-8.02,7.36-8.02h5.41c-0.32-6.92-4.04-14.39-10.07-20.18a34.475,34.475,0,0,0-48.84,0c-6.03,5.79-9.75,13.26-10.07,20.18h5.44c4.06,0,7.35,3.6,7.35,8.02v9.64c0,4.43-3.29,8.03-7.35,8.03h-3.38a4.04,4.04,0,0,1-4.02-4.02l-0.02-20.69a27.821,27.821,0,0,1,2.89-11.91,37.331,37.331,0,0,1,7.81-10.67,38.937,38.937,0,0,1,11.57-7.7,35.322,35.322,0,0,1,28.4,0,38.937,38.937,0,0,1,11.57,7.7,37.331,37.331,0,0,1,7.81,10.67,27.821,27.821,0,0,1,2.89,11.91v20.68A4.029,4.029,0,0,1,1135.92,1639.97Zm-3.37-23.73c-2.98,0-5.4,2.72-5.4,6.06v9.64c0,3.35,2.42,6.07,5.4,6.07h3.37a2.066,2.066,0,0,0,2.06-2.07v-19.7h-5.43Zm-63.59,0,0.02,19.7a2.072,2.072,0,0,0,2.06,2.07h3.38c2.98,0,5.4-2.72,5.4-6.07v-9.64c0-3.34-2.42-6.06-5.4-6.06h-5.46Zm42.15,41.93-0.1-1.96a32.206,32.206,0,0,0,19.21-7.76c4.83-4.12,7.82-9.25,7.82-13.39H1140c0,4.77-3.18,10.33-8.51,14.89A34.3,34.3,0,0,1,1111.11,1658.17Z" transform="translate(-1067 -1582)"/>
</svg>
