<svg xmlns="http://www.w3.org/2000/svg" width="82.406" height="82.25" viewBox="0 0 82.406 82.25">
  <metadata><?xpacket begin="﻿" id="W5M0MpCehiHzreSzNTczkc9d"?>
<x:xmpmeta xmlns:x="adobe:ns:meta/" x:xmptk="Adobe XMP Core 5.6-c138 79.159824, 2016/09/14-01:09:01        ">
   <rdf:RDF xmlns:rdf="http://www.w3.org/1999/02/22-rdf-syntax-ns#">
      <rdf:Description rdf:about=""/>
   </rdf:RDF>
</x:xmpmeta>
                                                                                                    
                                                                                                    
                                                                                                    
                                                                                                    
                                                                                                    
                                                                                                    
                                                                                                    
                                                                                                    
                                                                                                    
                                                                                                    
                                                                                                    
                                                                                                    
                                                                                                    
                                                                                                    
                                                                                                    
                                                                                                    
                                                                                                    
                                                                                                    
                                                                                                    
                                                                                                    
                           
<?xpacket end="w"?></metadata>
<defs>
    <style>
      .cls-1 {
        fill: #0b4477;
        fill-rule: evenodd;
      }
    </style>
  </defs>
  <path id="シェイプ_13" data-name="シェイプ 13" class="cls-1" d="M336.279,1618.41l-8.1-8.04a3.045,3.045,0,0,1-.909-2.17l-0.022-11.32a5.3,5.3,0,0,0-5.318-5.28l-11.345.04a3.081,3.081,0,0,1-2.185-.9l-8.1-8.03a5.319,5.319,0,0,0-7.506.02l-8.065,8.09a3.037,3.037,0,0,1-2.181.91l-11.346.04a5.307,5.307,0,0,0-5.3,5.31l0.022,11.37a3.084,3.084,0,0,1-.9,2.18l-8.047,8.04a5.279,5.279,0,0,0,.007,7.49l8.09,8.03a3.055,3.055,0,0,1,.909,2.18l0.022,11.37a5.306,5.306,0,0,0,5.317,5.28l11.4-.04a3.072,3.072,0,0,1,2.185.89l8.045,7.99a5.265,5.265,0,0,0,3.756,1.53,5.326,5.326,0,0,0,1.385-.18,5.262,5.262,0,0,0,2.365-1.38l8.064-8.09a3.123,3.123,0,0,1,2.182-.91l11.4-.03a5.323,5.323,0,0,0,5.3-5.32l-0.022-11.32a3.08,3.08,0,0,1,.895-2.18l8.032-8.09A5.294,5.294,0,0,0,336.279,1618.41Zm-1.56,5.89-8.043,8.07a5.244,5.244,0,0,0-1.547,3.75l0.022,11.4a3.1,3.1,0,0,1-3.082,3.09l-11.355.04a5.278,5.278,0,0,0-3.75,1.56l-8.043,8.07a3.1,3.1,0,0,1-4.366.01l-8.074-8.01a5.239,5.239,0,0,0-3.756-1.54l-11.419.04a3.085,3.085,0,0,1-3.094-3.08l0-11.35a5.3,5.3,0,0,0-1.562-3.75l-8.07-8.01a3.084,3.084,0,0,1-.009-4.36l8.007-8.03a5.244,5.244,0,0,0,1.547-3.75l-0.022-11.4a3.1,3.1,0,0,1,3.082-3.09l11.427-.04a5.277,5.277,0,0,0,3.75-1.56l8.007-8.03a3.119,3.119,0,0,1,2.181-.91,3.078,3.078,0,0,1,2.185.9l8.038,7.97a5.239,5.239,0,0,0,3.756,1.54l11.437-.04a3.089,3.089,0,0,1,3.093,3.07l0.046,11.38a5.218,5.218,0,0,0,1.562,3.72l8.041,7.99A3.072,3.072,0,0,1,334.719,1624.3Zm-62.728,6.69h2.673v-7.39h6.35v-2.34h-6.35v-4.92h7.5V1614H271.991v16.99Zm23.84-12.1c0-3.25-2.052-4.89-6.1-4.89h-5.446v16.99h2.673V1624h2.451l4.121,6.99h3.026l-4.342-7.31A4.7,4.7,0,0,0,295.831,1618.89Zm-8.872,2.81v-5.43h2.48c2.641,0,3.719.76,3.719,2.62,0,1.89-1.217,2.81-3.719,2.81h-2.48Zm14.119,1.52H307.4v-2.34h-6.327v-4.54H308.6V1614H298.4v16.99h10.442v-2.34h-7.769v-5.43Zm13.15,0h6.328v-2.34h-6.328v-4.54h7.522V1614H311.555v16.99H322v-2.34h-7.769v-5.43Z" transform="translate(-255.438 -1581.16)"/>
</svg>
