<?xml version="1.0" encoding="utf-8"?>
<!-- Generator: Adobe Illustrator 21.0.0, SVG Export Plug-In . SVG Version: 6.00 Build 0)  -->
<svg version="1.1" id="Capa_1" xmlns="http://www.w3.org/2000/svg" xmlns:xlink="http://www.w3.org/1999/xlink" x="0px" y="0px"
	 viewBox="0 0 828 815.9" style="enable-background:new 0 0 828 815.9;" xml:space="preserve">
<style type="text/css">
	.st0{fill:#FFFFFF;}
</style>
<g>
	<g>
		<path class="st0" d="M399.5,333.2c0-40.5-24.5-104.5-71.4-104.5c-14.9,0-30.9,7.5-39.4,19.2c-9.6,11.7-12.8,27.7-12.8,41.6
			c0,38.4,22.4,101.3,71.4,101.3c13.9,0,29.8-6.4,38.4-16C398.5,362,399.5,343.8,399.5,333.2z"/>
		<path class="st0" d="M812,409.9c0-220.6-179.1-399.7-399.7-399.7S12.6,189.3,12.6,409.9s179.1,399.7,399.7,399.7
			S812,630.6,812,409.9z M534.9,333.2h30.9V395h61.8v30.9h-61.8v61.8h-30.9v-61.8h-61.8V395h61.8C534.9,395,534.9,333.2,534.9,333.2
			z M197,561.3c0-20.3,10.7-49,43.7-69.3c35.2-21.3,83.1-24.5,108.7-26.6c-7.5-10.7-17.1-21.3-17.1-38.4c0-9.6,3.2-14.9,5.3-22.4
			c-6.4,1.1-12.8,1.1-18.1,1.1c-59.7,0-93.8-44.8-93.8-89.5c0-26.6,11.7-55.4,36.2-75.7c32-26.6,71.4-30.9,101.3-30.9h117.2
			l-36.2,20.3h-35.2l0,0c12.8,10.7,40.5,33,40.5,76.7c0,41.6-23.4,61.8-48,81c-7.5,7.5-16,14.9-16,27.7c0,12.8,8.5,19.2,14.9,24.5
			l20.3,16c24.5,21.3,48,40.5,48,79.9c0,53.3-52.2,107.6-149.2,107.6C236.4,643.3,197,603.9,197,561.3z"/>
		<path class="st0" d="M368.6,482.4c-4.3-1.1-7.5-1.1-12.8-1.1c-5.3,0-36.2,1.1-59.7,9.6c-12.8,4.3-49,18.1-49,58.6
			c0,40.5,39.4,69.3,100.2,69.3c54.4,0,83.1-26.6,83.1-61.8C430.4,529.3,412.3,513.3,368.6,482.4z"/>
	</g>
</g>
</svg>
