<svg xmlns="http://www.w3.org/2000/svg" width="112" height="87" viewBox="0 0 112 87">
<defs>
    <style>
      .cls-1 {
        fill: #095b9c;
        fill-rule: evenodd;
      }
    </style>
  </defs>
  <path id="" data-name="" class="cls-1" d="M521.314,1318.3v4.6h-7.931l-7.631-5.07-20.126-7.04a3.718,3.718,0,0,0-4.784,2.42,3.719,3.719,0,0,0,1.815,4.35l12.074,6.4-7.772,3.87H474.324l-2.288-5.69a3.018,3.018,0,0,0-5.139-.63h0a2.921,2.921,0,0,0-.4,2.66l1.238,3.66h-3.75l-8.263-4.5a3.171,3.171,0,1,0-2.933,5.62l12.037,5.92,24.306,4.85,31.966,0.02,0.215-1.84v4.87h9.463V1318.3h-9.463Zm-52.757,4.4a0.875,0.875,0,0,1,.842-0.3,0.89,0.89,0,0,1,.74.49l1.914,4.77-2.216.01-1.4-4.15A0.886,0.886,0,0,1,468.557,1322.7Zm52.558,13.16-0.219,1.84H489.435l-23.944-4.78-11.8-5.8a1.124,1.124,0,0,1-.531-1.48,1.136,1.136,0,0,1,.683-0.61,1.081,1.081,0,0,1,.892.09l8.725,4.75h23.977l11.748-5.85-15.572-8.26a1.675,1.675,0,0,1-.819-1.96,1.687,1.687,0,0,1,2.156-1.09l19.878,6.96,7.933,5.27h8.35v10.92Zm7.618,4.87h-5.376v-20.4h5.376v20.4Zm2.267,2.26h-9.91v-4.82l0.053,1.79-32.01-.02-24.4-4.87-12.036-5.92a3.39,3.39,0,0,1,.429-6.26,3.307,3.307,0,0,1,2.71.25l8.212,4.47h3.382l-1.139-3.37a3.133,3.133,0,0,1,.409-2.83l0.02-.03a3.243,3.243,0,0,1,5.529.68l2.231,5.55h12.431l7.338-3.66-11.692-6.19a3.944,3.944,0,0,1-1.924-4.61,3.937,3.937,0,0,1,5.071-2.57l20.177,7.06,7.575,5.04h7.639v-4.61H531v24.92Zm-9.463-.45h9.017v-24.02h-9.017v4.6h-8.221l-7.664-5.09-20.1-7.03a3.482,3.482,0,0,0-2.791,6.36l12.456,6.61-8.206,4.09H474.173l-2.344-5.84a2.8,2.8,0,0,0-4.738-.6l-0.013.02a2.7,2.7,0,0,0-.368,2.46l1.336,3.96h-4.117l-8.313-4.53a2.9,2.9,0,0,0-2.351-.22,2.945,2.945,0,0,0-.375,5.44l12.01,5.91,24.277,4.84,31.922,0.02,0.438-1.89v4.91Zm7.42-1.59h-5.823v-20.84h5.823v20.84Zm-5.377-.44h4.93v-19.95h-4.93v19.95Zm-34.145-2.59-24.043-4.8-11.8-5.8a1.341,1.341,0,0,1-.636-1.77,1.36,1.36,0,0,1,.816-0.73,1.34,1.34,0,0,1,1.07.1l8.674,4.73h23.867l11.314-5.64-15.19-8.05a1.9,1.9,0,0,1-.928-2.22,1.906,1.906,0,0,1,2.443-1.24l19.929,6.98,7.876,5.24h8.507v11.32l-0.4,1.88H489.435Zm-23.872-5.21,23.916,4.77H520.9l0-1.8v-10.52h-8.2l-7.965-5.29-19.851-6.95a1.445,1.445,0,0,0-1.869.95,1.439,1.439,0,0,0,.71,1.69l15.954,8.46-12.182,6.07H463.407l-0.05-.02-8.725-4.76a0.908,0.908,0,0,0-1.264.42,0.9,0.9,0,0,0,.426,1.19Zm4.114-4.82-1.453-4.3a1.107,1.107,0,0,1,.152-1.02h0a1.214,1.214,0,0,1,1.97.24l2.037,5.07Zm-0.938-5.06a0.665,0.665,0,0,0-.092.62l1.35,4,1.727-.01-1.792-4.46a0.656,0.656,0,0,0-.56-0.36,0.669,0.669,0,0,0-.633.21h0ZM448.8,1269.56v38.12h67.975v-38.12H448.8Zm1.618,36.51v-34.89H515.16v34.89H450.421ZM517,1307.91H448.58v-38.57H517v38.57Zm-67.976-.45h67.529v-37.67H449.026v37.67Zm66.357-1.17H450.2v-35.33h65.185v35.33Zm-64.739-.44h64.293V1271.4H450.644v34.45Zm59.3-32.59a3.565,3.565,0,1,0,3.576,3.56A3.574,3.574,0,0,0,509.945,1273.26Zm1.958,3.56a1.958,1.958,0,1,1-1.958-1.95A1.954,1.954,0,0,1,511.9,1276.82Zm-1.958,3.79a3.79,3.79,0,1,1,3.8-3.79A3.8,3.8,0,0,1,509.945,1280.61Zm0-7.13a3.345,3.345,0,1,0,3.353,3.34A3.351,3.351,0,0,0,509.945,1273.48Zm0,5.52a2.175,2.175,0,1,1,2.181-2.18A2.184,2.184,0,0,1,509.945,1279Zm0-3.91a1.73,1.73,0,1,0,1.735,1.73A1.737,1.737,0,0,0,509.945,1275.09Zm0,21.77a3.565,3.565,0,1,0,3.576,3.56A3.574,3.574,0,0,0,509.945,1296.86Zm1.958,3.56a1.958,1.958,0,1,1-1.958-1.95A1.962,1.962,0,0,1,511.9,1300.42Zm-1.958,3.79a3.785,3.785,0,1,1,3.8-3.79A3.8,3.8,0,0,1,509.945,1304.21Zm0-7.13a3.345,3.345,0,1,0,3.353,3.34A3.351,3.351,0,0,0,509.945,1297.08Zm0,5.52a2.175,2.175,0,1,1,2.181-2.18A2.184,2.184,0,0,1,509.945,1302.6Zm0-3.91a1.73,1.73,0,1,0,1.735,1.73A1.737,1.737,0,0,0,509.945,1298.69Zm-54.218-18.29a3.565,3.565,0,1,0-3.575-3.56A3.574,3.574,0,0,0,455.727,1280.4Zm-1.957-3.56a1.957,1.957,0,1,1,1.957,1.95A1.961,1.961,0,0,1,453.77,1276.84Zm1.957,3.78a3.785,3.785,0,1,1,3.8-3.78A3.8,3.8,0,0,1,455.727,1280.62Zm0-7.13a3.345,3.345,0,1,0,3.353,3.35A3.353,3.353,0,0,0,455.727,1273.49Zm0,5.52a2.175,2.175,0,1,1,2.181-2.17A2.182,2.182,0,0,1,455.727,1279.01Zm0-3.9a1.725,1.725,0,1,0,1.734,1.73A1.73,1.73,0,0,0,455.727,1275.11Zm0,21.76a3.565,3.565,0,1,0,3.576,3.57A3.576,3.576,0,0,0,455.727,1296.87Zm1.957,3.57a1.957,1.957,0,1,1-1.957-1.95A1.959,1.959,0,0,1,457.684,1300.44Zm-1.957,3.79a3.79,3.79,0,1,1,3.8-3.79A3.8,3.8,0,0,1,455.727,1304.23Zm0-7.14a3.345,3.345,0,1,0,3.353,3.35A3.353,3.353,0,0,0,455.727,1297.09Zm0,5.52a2.175,2.175,0,1,1,2.181-2.17A2.175,2.175,0,0,1,455.727,1302.61Zm0-3.9a1.73,1.73,0,1,0,1.734,1.73A1.73,1.73,0,0,0,455.727,1298.71Zm54.689-3.1h0.809v-13.97h-0.809a5.3,5.3,0,0,1-5.3-5.29v-0.8H492.829a16.466,16.466,0,0,0-19.91,0H460.633v0.8a5.3,5.3,0,0,1-5.3,5.29h-0.809v13.97h0.809a5.3,5.3,0,0,1,5.3,5.28v0.81h12.286a16.466,16.466,0,0,0,19.91,0h12.285v-0.81A5.3,5.3,0,0,1,510.416,1295.61Zm-40.29,3.41c0.064,0.07.129,0.15,0.194,0.22,0.093,0.11.185,0.22,0.28,0.33,0.138,0.15.281,0.3,0.425,0.45a0.5,0.5,0,0,1,.064.07H462.2a6.9,6.9,0,0,0-6.062-6.05V1283.2a6.885,6.885,0,0,0,6.062-6.04h8.885c-0.024.02-.046,0.05-0.069,0.07-0.142.15-.283,0.3-0.419,0.45-0.1.11-.189,0.22-0.282,0.33-0.064.07-.13,0.14-0.193,0.22a16.164,16.164,0,0,0-3.639,8.7l0,0.02c-0.024.24-.042,0.48-0.056,0.73,0,0.03-.006.07-0.008,0.11-0.013.28-.021,0.55-0.021,0.83s0.008,0.56.021,0.84c0,0.03.006,0.07,0.008,0.11,0.014,0.24.032,0.49,0.056,0.73a0.016,0.016,0,0,1,0,.01A16.149,16.149,0,0,0,470.126,1299.02Zm12.748,4.42a14.8,14.8,0,0,1-8.856-2.93l-0.215-.17h0.026a1.15,1.15,0,0,0,.774-0.69c0.057-.49,1.167-1.18,2.059-1.73a9.2,9.2,0,0,0,3.574-3.21c0.143,0.08.29,0.14,0.49,0.23a1.013,1.013,0,0,0,.812.09,0.627,0.627,0,0,0,.38-0.46,0.942,0.942,0,0,0-.582-1.07,7.485,7.485,0,0,1-3.034-2.62c-0.323-.45-0.629-0.86-0.843-1.15l-0.049-.06c-0.121-.17-0.182-0.25-0.216-0.29a0.8,0.8,0,0,0-.732-0.48h-0.255l-0.034.09a1.416,1.416,0,0,1-.831-1.08,1.694,1.694,0,0,1,.06-1.3,0.534,0.534,0,0,1,.422-0.13,0.789,0.789,0,0,0,.86-0.67,0.749,0.749,0,0,0-.154-0.57,0.7,0.7,0,0,0-.262-0.22,0.81,0.81,0,0,0,.136-0.44c0-.23.1-5.61,6.494-6.03a1.837,1.837,0,0,1,2.029.9,0.668,0.668,0,0,0,.525.39h0.106c1.537,0,2.493,1.6,2.668,1.93a5.114,5.114,0,0,1,.53,3.08l-0.095.82a0.8,0.8,0,0,0,.8.79h0.228a0.739,0.739,0,0,0,.217.02,0.623,0.623,0,0,1,.441.13,1.692,1.692,0,0,1,.061,1.3,1.368,1.368,0,0,1-.921,1.11,0.843,0.843,0,0,0-.718.39,10.672,10.672,0,0,1-4.242,4.03,5.136,5.136,0,0,1-1.206.51,0.942,0.942,0,0,0-.733.61,0.715,0.715,0,0,0,.151.71,0.9,0.9,0,0,0,.914.22,7.138,7.138,0,0,0,1.917-.84,8.939,8.939,0,0,0,3.614,3.28c0.889,0.54,1.969,1.23,2.052,1.72a1.186,1.186,0,0,0,.714.69l-0.235.18A14.815,14.815,0,0,1,482.874,1303.44Zm0-29.63a14.8,14.8,0,0,1,8.838,2.91l0.334,0.27a14.764,14.764,0,0,1,2.372,2.32c0.047,0.06.092,0.12,0.137,0.18,0.109,0.13.215,0.27,0.318,0.41,0.07,0.1.139,0.2,0.207,0.29,0.072,0.11.142,0.21,0.212,0.32s0.158,0.24.234,0.36c0.05,0.08.1,0.16,0.146,0.24,0.085,0.15.17,0.29,0.251,0.44,0.024,0.04.046,0.09,0.069,0.13a14.664,14.664,0,0,1,.784,1.73c0.02,0.05.041,0.1,0.06,0.15,0.057,0.16.109,0.32,0.162,0.48,0.029,0.09.059,0.18,0.087,0.27,0.044,0.14.085,0.29,0.124,0.43,0.03,0.11.06,0.22,0.087,0.33,0.033,0.14.065,0.27,0.094,0.41s0.053,0.26.078,0.38,0.047,0.25.068,0.38c0.023,0.15.043,0.29,0.062,0.44,0.015,0.11.031,0.23,0.044,0.34,0.018,0.17.031,0.34,0.044,0.52,0.007,0.09.016,0.18,0.021,0.28,0.015,0.26.023,0.53,0.023,0.8s-0.008.54-.023,0.81c0,0.09-.014.19-0.021,0.28-0.013.17-.026,0.34-0.044,0.52-0.013.11-.029,0.22-0.044,0.34-0.019.14-.039,0.29-0.062,0.44-0.021.12-.045,0.25-0.068,0.37s-0.05.26-.078,0.39-0.061.27-.094,0.4c-0.027.11-.057,0.22-0.087,0.33-0.039.15-.08,0.3-0.124,0.44-0.028.09-.058,0.18-0.087,0.27-0.052.16-.105,0.32-0.162,0.48-0.019.05-.04,0.1-0.06,0.15a15.268,15.268,0,0,1-.785,1.73c-0.023.04-.044,0.09-0.068,0.13-0.081.15-.166,0.29-0.252,0.43-0.048.09-.095,0.17-0.144,0.25-0.077.12-.156,0.24-0.236,0.36s-0.139.21-.211,0.31-0.137.2-.208,0.29q-0.153.21-.315,0.42c-0.046.06-.092,0.12-0.139,0.17a14.706,14.706,0,0,1-1.632,1.71,0.805,0.805,0,0,0,0-.17c-0.138-1.18-1.262-1.93-2.6-2.75L490,1296.6c-1.226-.76-2.609-1.62-3.1-2.77a10.8,10.8,0,0,0,2.511-2.77c0.133-.19.243-0.35,0.33-0.46l0.015-.02c0.024-.01.047-0.03,0.07-0.04a2.943,2.943,0,0,0,2.1-2.3,2.907,2.907,0,0,0-.439-2.69,2,2,0,0,0-1.178-.6l0.02-.13a5.921,5.921,0,0,0-.391-3.26,4.869,4.869,0,0,0-3.845-3.23c-0.578-1.37-2.29-1.37-3.223-1.37-7.973,0-8.065,7.54-8.065,7.62a0.759,0.759,0,0,0,.178.49,1.983,1.983,0,0,0-.73.48,3.348,3.348,0,0,0,1.726,5.01,9.667,9.667,0,0,0,1,1.34l0.037,0.04c0.1,0.12.2,0.24,0.306,0.37a9.124,9.124,0,0,0,1.61,1.52c-0.486,1.15-1.872,2.01-3.1,2.77-1.415.88-2.637,1.63-2.781,2.87a0.82,0.82,0,0,0,.016.27,16.265,16.265,0,0,1-1.728-1.79c-0.061-.08-0.12-0.15-0.18-0.23-0.093-.12-0.185-0.24-0.274-0.36s-0.158-.22-0.235-0.33q-0.093-.135-0.183-0.27c-0.087-.13-0.174-0.26-0.257-0.4-0.041-.06-0.08-0.13-0.12-0.2-0.093-.15-0.185-0.31-0.273-0.47-0.013-.02-0.024-0.05-0.037-0.07a14.237,14.237,0,0,1-.821-1.81c-0.016-.04-0.032-0.08-0.047-0.12-0.06-.16-0.114-0.33-0.168-0.49-0.027-.09-0.056-0.17-0.082-0.26-0.045-.14-0.087-0.29-0.127-0.44-0.029-.11-0.058-0.22-0.085-0.32-0.033-.14-0.065-0.28-0.095-0.42-0.028-.12-0.053-0.25-0.077-0.38s-0.047-.25-0.068-0.38-0.043-.29-0.062-0.43c-0.016-.12-0.032-0.23-0.044-0.34-0.019-.18-0.032-0.35-0.044-0.52-0.007-.09-0.017-0.19-0.022-0.28-0.014-.27-0.023-0.54-0.023-0.81s0.009-.54.023-0.8c0-.1.015-0.19,0.022-0.28,0.012-.18.025-0.35,0.044-0.52,0.012-.11.028-0.23,0.044-0.34,0.019-.15.038-0.29,0.062-0.44,0.021-.13.044-0.25,0.068-0.38s0.049-.25.077-0.38,0.061-.27.095-0.41c0.027-.11.056-0.22,0.085-0.32,0.04-.15.082-0.3,0.127-0.45,0.026-.08.055-0.17,0.082-0.25,0.054-.17.108-0.33,0.168-0.5,0.015-.04.032-0.08,0.047-0.12a14.91,14.91,0,0,1,.82-1.8c0.013-.02.025-0.05,0.038-0.07,0.088-.16.18-0.32,0.272-0.47,0.041-.07.08-0.14,0.122-0.21,0.082-.13.169-0.26,0.255-0.39,0.061-.1.122-0.19,0.185-0.28,0.076-.11.154-0.22,0.234-0.32,0.09-.13.182-0.25,0.276-0.37,0.059-.07.117-0.15,0.177-0.22a15.148,15.148,0,0,1,2.361-2.31l0.318-.25A14.792,14.792,0,0,1,482.874,1273.81Zm11.876,26.18c0.132-.14.263-0.27,0.391-0.42,0.108-.12.211-0.24,0.315-0.36,0.053-.06.107-0.12,0.159-0.19a16.113,16.113,0,0,0,3.648-8.72h0c0.025-.24.043-0.49,0.057-0.74,0-.03,0-0.07.007-0.1q0.021-.42.021-0.84c0-.28-0.007-0.55-0.021-0.83,0-.04,0-0.07-0.007-0.11-0.014-.24-0.032-0.49-0.057-0.73h0a16.145,16.145,0,0,0-3.649-8.73l-0.154-.18c-0.106-.12-0.211-0.25-0.321-0.37-0.125-.14-0.254-0.27-0.384-0.41-0.032-.03-0.063-0.07-0.095-0.1h8.883a6.886,6.886,0,0,0,6.064,6.04v10.84a6.9,6.9,0,0,0-6.064,6.05H494.66C494.691,1300.06,494.719,1300.02,494.75,1299.99Zm-11.876,5.28a16.509,16.509,0,0,1-10.03-3.35H460.409v-1.03a5.074,5.074,0,0,0-5.077-5.06H454.3v-14.41h1.032a5.083,5.083,0,0,0,5.077-5.07v-1.03h12.436a16.689,16.689,0,0,1,20.059,0h12.434v1.03a5.083,5.083,0,0,0,5.078,5.07h1.033v14.41h-1.033a5.075,5.075,0,0,0-5.078,5.06v1.03H492.9A16.507,16.507,0,0,1,482.874,1305.27Zm-22.018-3.79h12.138l0.06,0.04a16.222,16.222,0,0,0,19.64,0l0.059-.04h12.138v-0.59a5.521,5.521,0,0,1,5.525-5.5H511v-13.53h-0.586a5.523,5.523,0,0,1-5.525-5.51v-0.58H492.753l-0.059-.05a16.259,16.259,0,0,0-19.639,0l-0.06.05H460.856v0.58a5.522,5.522,0,0,1-5.524,5.51h-0.586v13.53h0.586a5.52,5.52,0,0,1,5.524,5.5v0.59Zm22.018,2.18a14.994,14.994,0,0,1-8.989-2.97l-0.45-.36,0,0.02-0.326-.27h0.015l-0.2-.18a15.155,15.155,0,0,1-1.754-1.81l-0.142-.18-0.041-.05c-0.094-.12-0.187-0.24-0.277-0.37-0.082-.11-0.161-0.22-0.239-0.33-0.063-.09-0.125-0.18-0.186-0.28-0.089-.13-0.177-0.26-0.261-0.4l-0.122-.2c-0.094-.16-0.188-0.32-0.277-0.48l-0.025-.05a15.14,15.14,0,0,1-.846-1.86l-0.048-.12c-0.058-.16-0.11-0.32-0.162-0.48l-0.091-.28c-0.046-.15-0.088-0.3-0.13-0.45-0.029-.11-0.058-0.22-0.085-0.33-0.035-.14-0.067-0.28-0.1-0.42s-0.053-.26-0.077-0.38-0.048-.26-0.069-0.39c-0.024-.15-0.044-0.3-0.064-0.44l-0.011-.09c-0.012-.08-0.024-0.17-0.033-0.26-0.019-.17-0.032-0.35-0.045-0.52l-0.008-.11c0-.06-0.01-0.12-0.014-0.18-0.014-.27-0.023-0.54-0.023-0.82s0.009-.54.023-0.82c0-.06.009-0.12,0.014-0.17l0.008-.11c0.013-.17.026-0.35,0.045-0.52,0.009-.09.021-0.18,0.033-0.27l0.011-.08c0.02-.15.04-0.3,0.064-0.44s0.045-.26.069-0.39,0.05-.26.077-0.38c0.031-.14.063-0.28,0.1-0.42,0.027-.11.056-0.22,0.085-0.33,0.041-.15.084-0.3,0.13-0.45l0.083-.26c0.055-.17.11-0.34,0.17-0.5l0.048-.13a15.658,15.658,0,0,1,.833-1.83l0.039-.07c0.088-.16.181-0.32,0.275-0.48l0.123-.2c0.085-.14.172-0.27,0.26-0.41l0.187-.27c0.078-.11.157-0.23,0.238-0.34s0.185-.24.281-0.36l0.044-.06c0.044-.06.089-0.11,0.135-0.17a15.128,15.128,0,0,1,2.4-2.35l0.318-.25a15.086,15.086,0,0,1,17.963-.01l0.339,0.26a15.443,15.443,0,0,1,2.407,2.36l0.12,0.15c0.129,0.17.237,0.31,0.342,0.45q0.107,0.15.21,0.3c0.073,0.1.144,0.21,0.215,0.31,0.081,0.13.161,0.25,0.238,0.37l0.148,0.25c0.093,0.16.176,0.3,0.254,0.44l0.071,0.14a14.7,14.7,0,0,1,.8,1.75l0.06,0.15c0.059,0.16.112,0.33,0.165,0.49l0.023,0.07c0.022,0.06.044,0.13,0.065,0.2,0.045,0.15.086,0.3,0.127,0.44,0.03,0.12.06,0.23,0.088,0.34,0.034,0.14.065,0.27,0.1,0.41s0.053,0.26.078,0.39,0.048,0.26.068,0.39,0.045,0.29.065,0.44l0.007,0.06c0.013,0.1.027,0.19,0.037,0.29,0.019,0.17.032,0.35,0.045,0.52l0.008,0.11c0.005,0.06.01,0.12,0.013,0.17,0.015,0.28.023,0.55,0.023,0.82s-0.008.55-.023,0.82c0,0.06-.008.12-0.013,0.18l-0.008.1c-0.013.18-.026,0.36-0.045,0.53-0.01.1-.024,0.19-0.037,0.29l-0.008.06c-0.019.14-.039,0.29-0.064,0.44-0.02.13-.044,0.26-0.068,0.38s-0.051.26-.078,0.39-0.062.28-.1,0.42c-0.028.11-.058,0.22-0.088,0.33-0.041.15-.082,0.3-0.127,0.45-0.022.07-.045,0.14-0.068,0.21l-0.02.06c-0.055.17-.108,0.33-0.165,0.48l-0.06.16a14.7,14.7,0,0,1-.8,1.75l-0.071.14c-0.081.15-.168,0.29-0.255,0.44l-0.146.24c-0.078.13-.158,0.25-0.24,0.37s-0.141.22-.213,0.32-0.14.2-.212,0.3c-0.1.14-.21,0.28-0.319,0.41l-0.142.18a14.4,14.4,0,0,1-1.657,1.73l-0.4.36h0l-0.023.02h0l-0.661.52A14.972,14.972,0,0,1,482.874,1303.66Zm-8.632-3.26a14.647,14.647,0,0,0,17.281-.02,1.478,1.478,0,0,1-.508-0.69c-0.07-.41-1.34-1.2-1.95-1.58a9.593,9.593,0,0,1-3.588-3.15,6.647,6.647,0,0,1-1.777.75,1.111,1.111,0,0,1-1.126-.29,0.936,0.936,0,0,1-.2-0.93,1.178,1.178,0,0,1,.9-0.76,4.951,4.951,0,0,0,1.148-.49,10.48,10.48,0,0,0,4.16-3.95,1.065,1.065,0,0,1,.868-0.49,1.178,1.178,0,0,0,.739-0.94,1.537,1.537,0,0,0-.008-1.1,0.435,0.435,0,0,0-.266-0.06,1.667,1.667,0,0,1-.233-0.01l-0.226-.01a1.013,1.013,0,0,1-1.018-1.01l0.1-.84a4.943,4.943,0,0,0-.5-2.96c-0.165-.3-1.061-1.81-2.472-1.81h-0.1a0.878,0.878,0,0,1-.721-0.49,1.64,1.64,0,0,0-1.825-.8c-6.188.41-6.284,5.59-6.286,5.81a1.033,1.033,0,0,1-.068.37,0.684,0.684,0,0,1,.149.15,0.99,0.99,0,0,1,.2.74,1,1,0,0,1-1.1.86,0.4,0.4,0,0,0-.239.06,1.524,1.524,0,0,0-.007,1.1,1.28,1.28,0,0,0,.5.82h0.4a1.026,1.026,0,0,1,.925.58l0.2,0.27,0.082,0.11c0.212,0.29.5,0.68,0.812,1.11a7.405,7.405,0,0,0,2.948,2.55,1.152,1.152,0,0,1,.7,1.32,0.88,0.88,0,0,1-.509.62,1.234,1.234,0,0,1-1.006-.1c-0.107-.05-0.2-0.09-0.29-0.13a9.833,9.833,0,0,1-3.55,3.1c-0.714.44-1.909,1.18-1.955,1.57A1.075,1.075,0,0,1,474.242,1300.4Zm11.424-6.06,0.1,0.22a8.786,8.786,0,0,0,3.531,3.18c1.123,0.69,2.06,1.31,2.155,1.88a0.986,0.986,0,0,0,.512.49l0.548,0.05,0.048-.54a0.6,0.6,0,0,0,0-.12c-0.123-1.05-1.111-1.74-2.5-2.6l-0.189-.11c-1.251-.78-2.668-1.65-3.183-2.87l-0.068-.16,0.142-.11a10.6,10.6,0,0,0,2.458-2.71c0.141-.21.252-0.37,0.341-0.48l0.082-.07,0.039-.03,0.079-.04a3.13,3.13,0,0,0,1.558-4.62,1.806,1.806,0,0,0-1.047-.53l-0.221-.03,0.054-.35a5.712,5.712,0,0,0-.375-3.14,4.666,4.666,0,0,0-3.671-3.1l-0.126-.02-0.05-.11c-0.52-1.24-2.083-1.24-3.017-1.24-7.723,0-7.842,7.32-7.842,7.4a0.544,0.544,0,0,0,.129.35l0.193,0.24-0.288.11a1.749,1.749,0,0,0-.646.42,2.707,2.707,0,0,0-.385,2.49,2.672,2.672,0,0,0,2,2.15l0.095,0.02,0.048,0.09a9.467,9.467,0,0,0,.972,1.3l0.041,0.05c0.1,0.12.205,0.24,0.308,0.37a8.789,8.789,0,0,0,1.572,1.49l0.139,0.1-0.068.16c-0.515,1.22-1.935,2.1-3.189,2.87-1.366.85-2.546,1.58-2.678,2.71a0.6,0.6,0,0,0,.013.19l0.092,0.41,0.434,0.02a1.031,1.031,0,0,0,.567-0.49c0.065-.56.937-1.14,2.162-1.9a8.986,8.986,0,0,0,3.5-3.12l0.1-.2,0.2,0.1c0.137,0.08.281,0.14,0.474,0.23a0.818,0.818,0,0,0,.632.09,0.437,0.437,0,0,0,.254-0.32,0.724,0.724,0,0,0-.457-0.81,7.728,7.728,0,0,1-3.124-2.69c-0.307-.43-0.6-0.82-0.808-1.1l-0.082-.11c-0.12-.16-0.18-0.24-0.214-0.29l-0.028-.04a0.58,0.58,0,0,0-.527-0.35h-0.1l-0.06.16-0.213-.09a1.611,1.611,0,0,1-.964-1.23,1.951,1.951,0,0,1,.112-1.5,0.755,0.755,0,0,1,.6-0.2,0.579,0.579,0,0,0,.627-0.48,0.553,0.553,0,0,0-.11-0.41,0.6,0.6,0,0,0-.188-0.15l-0.222-.12,0.14-.2a0.6,0.6,0,0,0,.1-0.32c0-.24.1-5.82,6.7-6.25a2.05,2.05,0,0,1,2.232,1,0.463,0.463,0,0,0,.344.29h0.093c1.669,0,2.684,1.7,2.87,2.04a5.357,5.357,0,0,1,.556,3.22l-0.1.81a0.58,0.58,0,0,0,.581.55h0.085l0.016-.03,0.173,0.03a0.505,0.505,0,0,0,.182.02,0.8,0.8,0,0,1,.592.2,1.956,1.956,0,0,1,.113,1.5,1.567,1.567,0,0,1-1.075,1.27l-0.064.01a0.636,0.636,0,0,0-.531.29,10.934,10.934,0,0,1-4.325,4.11,5.829,5.829,0,0,1-1.263.53,0.73,0.73,0,0,0-.567.45,0.5,0.5,0,0,0,.1.5,0.679,0.679,0,0,0,.7.16,7.314,7.314,0,0,0,1.857-.82Zm-15.65,1.24c0.086,0.16.178,0.31,0.269,0.47l0.118,0.2c0.082,0.13.167,0.26,0.253,0.39,0.059,0.09.119,0.18,0.181,0.26q0.114,0.165.231,0.33c0.088,0.12.178,0.24,0.269,0.35l0.042,0.06c0.045,0.05.09,0.11,0.136,0.17a14.934,14.934,0,0,0,1.349,1.44c0.253-1.23,1.463-1.98,2.853-2.84a7.874,7.874,0,0,0,2.941-2.51,9.018,9.018,0,0,1-1.5-1.45c-0.1-.12-0.2-0.25-0.305-0.37l-0.036-.04a10.479,10.479,0,0,1-.976-1.29,3.572,3.572,0,0,1-1.744-5.35,1.948,1.948,0,0,1,.575-0.43,0.974,0.974,0,0,1-.081-0.39c0-.08.095-7.84,8.288-7.84,0.951,0,2.7,0,3.376,1.39a5.092,5.092,0,0,1,3.9,3.34,6.118,6.118,0,0,1,.419,3.31,2.133,2.133,0,0,1,1.089.62,3.1,3.1,0,0,1,.494,2.89,3.186,3.186,0,0,1-2.22,2.45c-0.007,0-.013.01-0.02,0.01-0.091.12-.189,0.26-0.305,0.43a11.169,11.169,0,0,1-2.423,2.72,7.889,7.889,0,0,0,2.934,2.51l0.19,0.12c1.164,0.72,2.366,1.46,2.654,2.65a14.651,14.651,0,0,0,1.286-1.39l0.138-.17c0.106-.13.209-0.27,0.31-0.41,0.07-.09.138-0.19,0.2-0.28,0.071-.11.14-0.21,0.207-0.31,0.08-.12.158-0.24,0.233-0.36l0.142-.24c0.084-.14.168-0.28,0.248-0.43l0.068-.13a14.334,14.334,0,0,0,.773-1.7l0.058-.15c0.055-.15.106-0.31,0.156-0.46l0.024-.07c0.022-.07.044-0.14,0.065-0.2,0.044-.15.084-0.29,0.123-0.43,0.029-.11.058-0.22,0.085-0.33,0.033-.13.064-0.27,0.094-0.4s0.051-.25.075-0.38,0.047-.25.067-0.37c0.024-.14.043-0.29,0.062-0.43l0.008-.06c0.012-.09.025-0.19,0.035-0.28,0.018-.17.031-0.34,0.043-0.51l0.009-.11c0-.05.009-0.11,0.012-0.16,0.015-.27.023-0.53,0.023-0.8s-0.008-.53-0.023-0.79c0-.06-0.007-0.11-0.012-0.17l-0.009-.11c-0.012-.17-0.025-0.34-0.043-0.51-0.01-.09-0.023-0.18-0.035-0.27l-0.008-.06c-0.019-.15-0.038-0.29-0.062-0.43s-0.043-.25-0.067-0.37-0.048-.26-0.075-0.38c-0.03-.14-0.061-0.27-0.094-0.4-0.027-.11-0.056-0.22-0.085-0.33-0.039-.14-0.079-0.29-0.123-0.43l-0.086-.26c-0.051-.16-0.1-0.32-0.159-0.47l-0.058-.16a14.352,14.352,0,0,0-.773-1.69l-0.068-.14-0.238-.41-0.153-.25c-0.075-.12-0.153-0.24-0.231-0.36-0.068-.1-0.137-0.21-0.208-0.31s-0.135-.19-0.2-0.29c-0.1-.13-0.206-0.27-0.313-0.4l-0.135-.18a15.168,15.168,0,0,0-2.338-2.29l-0.333-.26a14.631,14.631,0,0,0-17.42.01l-0.314.25a14.927,14.927,0,0,0-2.326,2.28c-0.043.05-.086,0.11-0.129,0.16l-0.045.06q-0.139.18-.272,0.36c-0.079.1-.155,0.21-0.231,0.32-0.061.09-.122,0.18-0.181,0.27-0.086.13-.171,0.26-0.253,0.39l-0.119.2c-0.091.15-.182,0.31-0.267,0.46l-0.038.08a14.427,14.427,0,0,0-.808,1.77l-0.046.12c-0.059.16-.112,0.32-0.165,0.49l-0.082.25c-0.044.14-.085,0.29-0.125,0.44-0.029.1-.057,0.21-0.083,0.31-0.033.14-.065,0.27-0.094,0.41-0.027.12-.052,0.25-0.075,0.37s-0.047.25-.068,0.38-0.042.28-.061,0.43l-0.012.08c-0.011.09-.022,0.17-0.031,0.25-0.019.17-.031,0.34-0.044,0.51l-0.009.11c0,0.06-.009.11-0.012,0.17-0.014.26-.022,0.53-0.022,0.79s0.008,0.53.022,0.8c0,0.05.008,0.11,0.012,0.16l0.009,0.11c0.013,0.17.025,0.34,0.044,0.51,0.009,0.09.02,0.17,0.031,0.25l0.012,0.09c0.019,0.14.038,0.29,0.061,0.43,0.021,0.12.044,0.25,0.068,0.37s0.048,0.25.075,0.38,0.061,0.27.094,0.4c0.026,0.11.055,0.22,0.083,0.32,0.04,0.15.081,0.3,0.125,0.44l0.081,0.25c0.059,0.18.11,0.33,0.165,0.49l0.047,0.12a14.584,14.584,0,0,0,.809,1.77l-0.16.18Zm33.726,4.73h-9.616l0.462-.47c0.131-.14.261-0.27,0.387-0.41,0.094-.11.186-0.22,0.277-0.32l0.19-.23a15.909,15.909,0,0,0,3.6-8.6l0.008-.08c0.02-.22.036-0.43,0.048-0.65l0.007-.1c0.014-.28.021-0.55,0.021-0.83s-0.007-.55-0.021-0.82l-0.007-.11c-0.012-.21-0.028-0.43-0.048-0.64l-0.009-.01v-0.09a15.966,15.966,0,0,0-3.6-8.59l-0.151-.18c-0.116-.13-0.214-0.25-0.316-0.36-0.125-.14-0.252-0.27-0.38-0.41l-0.468-.47h9.616l0.023,0.19a6.649,6.649,0,0,0,5.867,5.85l0.2,0.03v11.23l-0.2.02a6.658,6.658,0,0,0-5.867,5.85Zm-8.565-.45h8.171a7.084,7.084,0,0,1,6.036-6.01V1283.4a7.1,7.1,0,0,1-6.036-6.02h-8.171a1.783,1.783,0,0,0,.129.14c0.1,0.12.205,0.24,0.306,0.36l0.175,0.2a16.369,16.369,0,0,1,3.69,8.76h0l0.008,0.08c0.025,0.25.043,0.5,0.057,0.75l0.008,0.11c0.014,0.28.022,0.56,0.022,0.84s-0.008.57-.022,0.85l-0.008.11c-0.014.25-.032,0.5-0.057,0.74l-0.009.08a16.4,16.4,0,0,1-3.689,8.77l-0.195.23c-0.094.11-.188,0.22-0.286,0.32A1.466,1.466,0,0,1,495.177,1299.86Zm-24.088.45h-9.083l-0.023-.2a6.658,6.658,0,0,0-5.867-5.85l-0.2-.02v-11.23l0.2-.03a6.65,6.65,0,0,0,5.867-5.85l0.023-.19h9.612l-0.439.45c-0.138.14-.277,0.29-0.411,0.44-0.083.09-.163,0.18-0.243,0.28l-0.1.11-0.128.15a15.974,15.974,0,0,0-3.59,8.59c-0.026.25-.043,0.49-0.057,0.73l-0.008.11c-0.013.27-.021,0.55-0.021,0.82s0.008,0.55.021,0.83l0.008,0.1c0.014,0.25.031,0.49,0.055,0.73a15.938,15.938,0,0,0,3.592,8.59h0l0.244,0.29c0.073,0.09.147,0.17,0.223,0.26,0.137,0.15.277,0.3,0.419,0.44l0.4,0.42Zm-8.689-.45h8.171c-0.047-.05-0.092-0.1-0.137-0.15-0.078-.08-0.155-0.17-0.231-0.26l-0.249-.29h0a16.442,16.442,0,0,1-3.69-8.83q-0.038-.375-0.057-0.75l-0.009-.11c-0.014-.28-0.021-0.56-0.021-0.85s0.007-.56.021-0.84l0.009-.12c0.013-.24.032-0.49,0.056-0.73a16.4,16.4,0,0,1,3.691-8.84c0.044-.05.089-0.11,0.135-0.16l0.1-.11c0.082-.1.164-0.19,0.25-0.29,0.044-.05.09-0.1,0.135-0.15H462.4a7.1,7.1,0,0,1-6.035,6.02v10.45A7.084,7.084,0,0,1,462.4,1299.86Zm-19.375-36.95v38.12h4.167v-1.62h-2.548v-34.89h64.739v3.58H511v-5.19H443.025Zm4.39,38.34H442.8v-38.57h68.422v5.64H509.16v-3.58H444.867v34.45h2.548v2.06Zm-4.166-.45h3.72v-1.16h-2.548V1264.3h65.185v3.58h1.172v-4.75H443.249v37.67Zm60.918-34.2a3.564,3.564,0,0,0-2.909,1.5h5.819A3.566,3.566,0,0,0,504.167,1266.6Zm3.343,1.72h-6.685l0.252-.35a3.8,3.8,0,0,1,6.181,0Zm-5.78-.44h4.875A3.333,3.333,0,0,0,501.73,1267.88Zm-51.78-1.27a3.576,3.576,0,0,0-3.576,3.57,3.509,3.509,0,0,0,.818,2.26v-4.34h5.656A3.571,3.571,0,0,0,449.95,1266.61Zm-2.535,6.45-0.4-.47a3.792,3.792,0,1,1,6.009-4.62l0.255,0.35h-5.869v4.74Zm-0.446-4.41a3.32,3.32,0,0,0,0,3.05v-3.05Zm0.552-.77h4.852A3.35,3.35,0,0,0,447.521,1267.88Zm-0.329,28.17v-4.54A3.559,3.559,0,0,0,447.192,1296.05Zm0.223,0.62-0.4-.48a3.776,3.776,0,0,1,0-4.82l0.4-.48v5.78Zm-0.446-4.42a3.34,3.34,0,0,0,0,3.06v-3.06Zm21.312-24.15h3.6a14.816,14.816,0,0,1,10.44,0h3.595A16.458,16.458,0,0,0,468.281,1268.1Zm18.4,0.22-4.441-.01a14.677,14.677,0,0,0-10.283,0l-0.079.01h-4.361l0.646-.41a16.709,16.709,0,0,1,17.871,0Zm-4.321-.44h2.751a16.2,16.2,0,0,0-16.025,0h2.752A15.117,15.117,0,0,1,482.358,1267.88Zm-45.136-11.65v38.12h4.167v-1.61H438.84v-34.9h64.74v3.58H505.2v-5.19H437.222Zm4.39,38.34H437v-38.56h68.422v5.63h-2.065v-3.57H439.064v34.44h2.548v2.06Zm-4.167-.44h3.72v-1.17h-2.548v-35.34H503.8v3.58h1.172v-4.75h-67.53v37.68Zm60.919-34.21a3.591,3.591,0,0,0-2.909,1.5h5.818A3.591,3.591,0,0,0,498.364,1259.92Zm3.343,1.72h-6.685l0.252-.35a3.8,3.8,0,0,1,6.181,0Zm-5.78-.44H500.8A3.354,3.354,0,0,0,495.927,1261.2Zm-51.78-1.26a3.56,3.56,0,0,0-2.758,5.83v-4.35h5.656A3.563,3.563,0,0,0,444.147,1259.94Zm-2.535,6.45-0.4-.48a3.792,3.792,0,1,1,6.01-4.62l0.255,0.35h-5.869v4.75Zm-0.447-4.42a3.34,3.34,0,0,0,0,3.06v-3.06Zm0.553-.77h4.852A3.35,3.35,0,0,0,441.718,1261.2Zm-0.329,28.17v-4.53a3.509,3.509,0,0,0-.818,2.26A3.557,3.557,0,0,0,441.389,1289.37Zm0.223,0.62-0.4-.48a3.766,3.766,0,0,1,0-4.81l0.4-.48v5.77Zm-0.447-4.41a3.32,3.32,0,0,0,0,3.05v-3.05Zm21.313-24.16h3.595a14.967,14.967,0,0,1,10.441,0h3.595A16.458,16.458,0,0,0,462.478,1261.42Zm18.4,0.22-4.44-.01a14.677,14.677,0,0,0-10.283,0l-0.079.01h-4.361l0.646-.41a16.709,16.709,0,0,1,17.871,0Zm-4.321-.44h2.752a16.268,16.268,0,0,0-16.025,0h2.752A15.114,15.114,0,0,1,476.554,1261.2Zm63.755,17.1h-1.463a5.123,5.123,0,0,1-5.145-5.1v-3.52a0.7,0.7,0,0,0-1.393,0v3.52a5.123,5.123,0,0,1-5.145,5.1H525.7a0.7,0.7,0,1,0,0,1.39h1.463a5.123,5.123,0,0,1,5.145,5.1v3.52a0.7,0.7,0,0,0,1.393,0v-3.52a5.123,5.123,0,0,1,5.145-5.1h1.463A0.7,0.7,0,1,0,540.309,1278.3Zm-4.383.7a6.5,6.5,0,0,0-2.922,2.89,6.494,6.494,0,0,0-2.921-2.89,6.565,6.565,0,0,0,2.921-2.9A6.572,6.572,0,0,0,535.926,1279Zm-4.469,13.94h-0.364a4.1,4.1,0,0,1-4.042-4.15v-1.23a0.548,0.548,0,1,0-1.1,0v1.23a4.1,4.1,0,0,1-4.042,4.15H521.55a0.56,0.56,0,0,0,0,1.12h0.364a4.1,4.1,0,0,1,4.042,4.14v1.24a0.548,0.548,0,1,0,1.1,0v-1.24a4.1,4.1,0,0,1,4.042-4.14h0.364A0.56,0.56,0,0,0,531.457,1292.94Zm-2.658.56a5.207,5.207,0,0,0-2.3,2.35,2.356,2.356,0,0,1,0-4.71A5.23,5.23,0,0,0,528.8,1293.5Zm-84.49,19.8h-1.463a5.123,5.123,0,0,1-5.145-5.1v-3.52a0.7,0.7,0,0,0-1.393,0v3.52a5.123,5.123,0,0,1-5.145,5.1H429.7a0.7,0.7,0,1,0,0,1.39h1.463a5.123,5.123,0,0,1,5.145,5.1v3.52a0.7,0.7,0,0,0,1.393,0v-3.52a5.123,5.123,0,0,1,5.145-5.1h1.463A0.7,0.7,0,1,0,444.309,1313.3Zm-4.383.7a6.5,6.5,0,0,0-2.922,2.89,6.494,6.494,0,0,0-2.921-2.89,6.565,6.565,0,0,0,2.921-2.9A6.572,6.572,0,0,0,439.926,1314Z" transform="translate(-429 -1256)"/>
</svg>
