<svg 
 xmlns="http://www.w3.org/2000/svg"
 xmlns:xlink="http://www.w3.org/1999/xlink"
 width="70px" height="80px">
<path fill-rule="evenodd"  fill="rgb(11, 68, 119)"
 d="M69.181,61.262 C69.180,61.266 69.178,61.270 69.177,61.274 C69.115,61.455 69.049,61.635 68.981,61.813 C68.967,61.849 68.953,61.886 68.939,61.922 C68.882,62.066 68.823,62.209 68.762,62.351 C68.726,62.436 68.689,62.520 68.651,62.604 C68.648,62.613 68.644,62.621 68.640,62.629 C67.818,64.454 66.663,66.061 65.269,67.395 C65.260,67.404 65.251,67.413 65.242,67.421 C65.111,67.545 64.979,67.667 64.845,67.786 C64.780,67.844 64.716,67.901 64.651,67.957 C64.595,68.005 64.539,68.053 64.482,68.100 C64.352,68.209 64.220,68.316 64.086,68.420 C64.068,68.434 64.050,68.448 64.032,68.462 C61.792,70.198 59.062,71.323 56.090,71.590 C56.038,71.595 55.987,71.600 55.935,71.604 C55.777,71.617 55.619,71.627 55.460,71.634 C55.376,71.638 55.292,71.641 55.208,71.644 C55.113,71.647 55.018,71.649 54.923,71.650 C54.854,71.651 54.787,71.655 54.718,71.655 C54.459,71.655 54.199,71.646 53.939,71.633 C53.936,71.633 53.934,71.633 53.932,71.632 C53.824,71.627 53.717,71.620 53.609,71.612 C53.569,71.609 53.528,71.606 53.488,71.603 C53.403,71.596 53.318,71.588 53.234,71.580 C53.159,71.573 53.084,71.565 53.009,71.556 C52.953,71.550 52.896,71.544 52.840,71.537 C51.972,71.429 51.127,71.248 50.310,71.000 C50.309,71.000 50.308,71.000 50.306,70.999 C50.088,70.933 49.872,70.862 49.659,70.786 C49.614,70.771 49.569,70.755 49.525,70.739 C49.364,70.680 49.204,70.618 49.045,70.554 C46.090,69.374 43.593,67.307 41.856,64.580 C41.846,64.564 41.837,64.549 41.827,64.534 C41.761,64.429 41.693,64.328 41.630,64.222 C39.828,61.218 39.114,57.765 39.557,54.338 C39.558,54.333 39.558,54.329 39.559,54.325 C39.572,54.220 39.587,54.115 39.603,54.010 C39.613,53.943 39.624,53.875 39.635,53.808 C39.642,53.766 39.648,53.723 39.656,53.680 C39.762,53.058 39.906,52.449 40.084,51.855 L40.084,51.855 C40.150,51.634 40.221,51.416 40.297,51.200 C40.312,51.156 40.327,51.113 40.343,51.069 C40.402,50.906 40.464,50.744 40.528,50.583 C41.702,47.614 43.759,45.104 46.471,43.359 C46.486,43.349 46.501,43.339 46.517,43.329 C46.620,43.263 46.721,43.195 46.827,43.131 C50.323,41.012 54.431,40.388 58.394,41.375 C59.092,41.549 59.518,42.259 59.345,42.961 C59.172,43.663 58.466,44.091 57.767,43.917 C56.775,43.669 55.771,43.546 54.774,43.540 C54.755,43.541 54.737,43.543 54.719,43.543 C49.302,43.543 44.670,46.976 42.857,51.791 C42.837,51.843 42.817,51.894 42.798,51.946 C42.763,52.042 42.733,52.139 42.701,52.235 C42.663,52.349 42.624,52.463 42.589,52.579 C42.573,52.630 42.560,52.682 42.545,52.733 C42.500,52.889 42.456,53.045 42.417,53.203 C42.408,53.238 42.401,53.273 42.393,53.308 C42.352,53.481 42.313,53.654 42.279,53.826 C42.267,53.887 42.258,53.948 42.247,54.008 C42.220,54.152 42.195,54.297 42.174,54.441 C42.160,54.539 42.149,54.638 42.137,54.736 C42.124,54.843 42.110,54.949 42.100,55.055 C42.087,55.193 42.077,55.331 42.068,55.470 C42.064,55.539 42.058,55.608 42.055,55.676 C42.047,55.844 42.043,56.014 42.042,56.184 C42.042,56.227 42.040,56.271 42.040,56.314 C42.040,56.489 42.046,56.662 42.053,56.835 C42.055,56.879 42.055,56.923 42.058,56.967 C42.065,57.113 42.078,57.258 42.091,57.403 C42.097,57.477 42.102,57.551 42.109,57.624 C42.118,57.712 42.132,57.799 42.143,57.886 C42.420,60.074 43.257,62.139 44.542,63.883 C44.543,63.883 44.543,63.883 44.543,63.884 C44.608,63.972 44.678,64.058 44.746,64.145 C44.809,64.226 44.871,64.310 44.937,64.390 C44.942,64.395 44.947,64.401 44.951,64.406 C46.241,65.971 47.894,67.222 49.780,68.027 C49.783,68.029 49.786,68.030 49.789,68.031 C49.903,68.080 50.019,68.123 50.134,68.168 C50.222,68.203 50.310,68.239 50.400,68.272 C50.463,68.295 50.527,68.315 50.590,68.337 C50.733,68.386 50.877,68.436 51.023,68.480 C51.058,68.491 51.095,68.500 51.130,68.511 C51.302,68.562 51.474,68.611 51.649,68.654 C51.685,68.663 51.721,68.671 51.757,68.679 C51.928,68.721 52.099,68.759 52.269,68.793 C52.329,68.805 52.389,68.815 52.449,68.826 C52.593,68.852 52.737,68.877 52.882,68.899 C52.977,68.913 53.073,68.924 53.168,68.936 C53.277,68.949 53.385,68.963 53.494,68.974 C53.626,68.987 53.759,68.995 53.893,69.004 C53.966,69.009 54.040,69.015 54.113,69.019 C54.273,69.026 54.435,69.030 54.596,69.031 C54.647,69.032 54.698,69.034 54.749,69.034 C54.912,69.033 55.075,69.028 55.237,69.021 C55.291,69.019 55.345,69.018 55.400,69.015 C55.531,69.008 55.662,68.996 55.792,68.985 C55.880,68.978 55.967,68.972 56.054,68.963 C56.124,68.956 56.192,68.945 56.260,68.937 C58.594,68.646 60.785,67.707 62.599,66.262 C62.656,66.217 62.715,66.173 62.771,66.127 C62.800,66.103 62.828,66.077 62.857,66.053 C64.381,64.767 65.602,63.129 66.392,61.264 C66.395,61.256 66.398,61.250 66.401,61.243 C66.448,61.131 66.491,61.017 66.534,60.904 C66.570,60.812 66.607,60.722 66.640,60.629 C66.663,60.567 66.682,60.504 66.703,60.442 C66.753,60.297 66.803,60.152 66.847,60.004 C66.858,59.968 66.867,59.932 66.878,59.896 C66.928,59.724 66.977,59.550 67.021,59.374 C67.266,58.386 67.398,57.352 67.398,56.288 C67.398,55.566 67.981,54.979 68.701,54.979 C69.420,54.979 70.003,55.566 70.003,56.288 C70.003,58.028 69.714,59.701 69.181,61.262 ZM56.332,60.258 C56.075,60.560 55.710,60.716 55.342,60.716 C55.059,60.716 54.774,60.623 54.535,60.434 L46.767,54.262 C46.203,53.814 46.107,52.990 46.553,52.423 C46.999,51.856 47.818,51.759 48.383,52.208 L55.168,57.599 L67.025,43.689 C67.494,43.140 68.316,43.077 68.862,43.547 C69.408,44.017 69.472,44.844 69.004,45.393 L56.332,60.258 ZM41.625,29.534 L41.657,29.534 L41.657,40.368 C41.657,41.186 40.990,41.857 40.176,41.857 C39.362,41.857 38.694,41.186 38.694,40.368 L38.694,28.797 C38.694,28.306 38.938,27.848 39.345,27.570 C40.436,26.833 41.087,25.606 41.087,24.297 L41.087,12.300 C41.087,7.162 36.920,2.972 31.807,2.972 L29.235,2.972 C24.123,2.972 19.955,7.162 19.955,12.300 L19.955,24.313 C19.955,25.639 20.606,26.850 21.697,27.586 C22.104,27.848 22.348,28.323 22.348,28.814 L22.348,40.384 C22.348,41.153 21.909,41.857 21.225,42.201 C19.727,42.937 11.815,46.947 4.521,52.970 C3.528,53.804 2.958,55.015 2.958,56.325 L2.958,64.556 C2.958,65.375 2.291,66.046 1.477,66.046 C0.663,66.046 -0.005,65.375 -0.005,64.556 L-0.005,56.325 C-0.005,54.115 0.956,52.069 2.632,50.678 C9.535,44.966 16.976,41.006 19.385,39.795 L19.385,29.534 C17.855,28.241 16.976,26.326 16.976,24.297 L16.976,12.300 C16.976,5.509 22.479,-0.007 29.219,-0.007 L31.791,-0.007 C38.548,-0.007 44.034,5.525 44.034,12.300 L44.034,24.297 C44.034,26.326 43.139,28.225 41.625,29.534 ZM26.549,42.233 C27.363,42.233 28.030,42.904 28.030,43.723 C28.030,45.097 29.137,46.210 30.505,46.210 C31.010,46.210 31.498,46.063 31.889,45.785 C31.970,45.687 32.068,45.621 32.166,45.556 C32.670,45.097 32.980,44.443 32.980,43.723 C32.980,42.904 33.647,42.233 34.461,42.233 C35.275,42.233 35.943,42.888 35.959,43.690 C35.959,45.130 35.405,46.439 34.494,47.422 L35.731,74.965 C35.747,75.407 35.568,75.832 35.243,76.127 L31.384,79.629 C31.107,79.875 30.749,80.006 30.391,80.006 C30.033,80.006 29.675,79.891 29.398,79.629 L25.604,76.193 C25.279,75.898 25.100,75.472 25.116,75.031 L26.305,47.176 C25.523,46.243 25.067,45.032 25.067,43.723 C25.067,42.904 25.735,42.233 26.549,42.233 ZM30.375,76.536 L32.703,74.392 L31.563,49.042 C31.221,49.123 30.863,49.156 30.489,49.156 C30.033,49.156 29.593,49.107 29.170,48.992 L28.079,74.458 L30.375,76.536 Z"/>
</svg>