<svg 
 xmlns="http://www.w3.org/2000/svg"
 xmlns:xlink="http://www.w3.org/1999/xlink"
 width="66px" height="66px">
<path fill-rule="evenodd"  fill="rgb(11, 68, 119)"
 d="M52.488,65.928 C45.077,65.928 39.048,59.899 39.048,52.488 C39.048,45.076 45.077,39.047 52.488,39.047 C59.899,39.047 65.929,45.076 65.929,52.488 C65.929,59.899 59.899,65.928 52.488,65.928 ZM52.488,41.287 C46.312,41.287 41.288,46.312 41.288,52.488 C41.288,58.663 46.312,63.688 52.488,63.688 C58.664,63.688 63.689,58.663 63.689,52.488 C63.689,46.312 58.664,41.287 52.488,41.287 ZM59.208,53.608 L52.488,53.608 C51.869,53.608 51.368,53.107 51.368,52.488 L51.368,45.767 C51.368,45.148 51.869,44.647 52.488,44.647 C53.108,44.647 53.608,45.148 53.608,45.767 L53.608,51.368 L59.208,51.368 C59.828,51.368 60.328,51.868 60.328,52.488 C60.328,53.107 59.828,53.608 59.208,53.608 ZM40.168,41.051 C39.549,41.051 39.048,40.549 39.048,39.931 L39.048,36.807 L31.208,36.807 L31.208,44.647 L36.750,44.647 C37.369,44.647 37.870,45.149 37.870,45.767 C37.870,46.386 37.369,46.887 36.750,46.887 L31.208,46.887 L31.208,54.728 L34.752,54.728 C35.370,54.728 35.872,55.229 35.872,55.848 C35.872,56.466 35.370,56.968 34.752,56.968 L31.208,56.968 L28.032,56.968 L21.128,56.968 L18.888,56.968 L8.807,56.968 L8.807,46.887 L8.807,44.647 L8.807,36.807 L8.807,34.567 L8.807,24.487 L18.888,24.487 L21.128,24.487 L28.968,24.487 L31.208,24.487 L39.048,24.487 L41.288,24.487 L51.368,24.487 L51.368,36.807 L41.288,36.807 L41.288,39.931 C41.288,40.549 40.787,41.051 40.168,41.051 ZM18.888,26.727 L11.047,26.727 L11.047,34.567 L18.888,34.567 L18.888,26.727 ZM18.888,36.807 L11.047,36.807 L11.047,44.647 L18.888,44.647 L18.888,36.807 ZM18.888,46.887 L11.047,46.887 L11.047,54.728 L18.888,54.728 L18.888,46.887 ZM28.968,26.727 L21.128,26.727 L21.128,34.567 L28.968,34.567 L28.968,26.727 ZM28.968,36.807 L21.128,36.807 L21.128,44.647 L28.968,44.647 L28.968,36.807 ZM28.968,46.887 L21.128,46.887 L21.128,54.728 L28.032,54.728 L28.968,54.728 L28.968,46.887 ZM39.048,33.211 L39.048,26.727 L31.208,26.727 L31.208,34.567 L39.048,34.567 L39.048,33.211 ZM49.128,34.567 L49.128,26.727 L41.288,26.727 L41.288,33.211 L41.288,34.567 L49.128,34.567 ZM58.088,34.567 C57.469,34.567 56.968,34.067 56.968,33.447 L56.968,18.887 L3.207,18.887 L3.207,62.568 L37.928,62.568 C38.547,62.568 39.048,63.068 39.048,63.688 C39.048,64.307 38.547,64.808 37.928,64.808 L2.087,64.808 C1.468,64.808 0.967,64.307 0.967,63.688 L0.967,17.767 L0.967,6.567 C0.967,5.947 1.468,5.447 2.087,5.447 L9.927,5.447 L9.927,2.086 C9.927,1.467 10.428,0.966 11.047,0.966 L16.648,0.966 C17.267,0.966 17.768,1.467 17.768,2.086 L17.768,5.447 L42.408,5.447 L42.408,2.086 C42.408,1.467 42.909,0.966 43.528,0.966 L49.128,0.966 C49.748,0.966 50.248,1.467 50.248,2.086 L50.248,5.447 L58.088,5.447 C58.708,5.447 59.208,5.947 59.208,6.567 L59.208,17.767 L59.208,33.447 C59.208,34.067 58.708,34.567 58.088,34.567 ZM15.528,6.567 L15.528,3.207 L12.167,3.207 L12.167,6.567 L12.167,9.927 L15.528,9.927 L15.528,6.567 ZM48.008,6.567 L48.008,3.207 L44.648,3.207 L44.648,6.567 L44.648,9.927 L48.008,9.927 L48.008,6.567 ZM56.968,7.687 L50.248,7.687 L50.248,11.047 C50.248,11.666 49.748,12.167 49.128,12.167 L43.528,12.167 C42.909,12.167 42.408,11.666 42.408,11.047 L42.408,7.687 L17.768,7.687 L17.768,11.047 C17.768,11.666 17.267,12.167 16.648,12.167 L11.047,12.167 C10.428,12.167 9.927,11.666 9.927,11.047 L9.927,7.687 L3.207,7.687 L3.207,16.647 L56.968,16.647 L56.968,7.687 Z"/>
</svg>