<svg xmlns="http://www.w3.org/2000/svg" width="61" height="72.97" viewBox="0 0 61 72.97">
  <metadata><?xpacket begin="﻿" id="W5M0MpCehiHzreSzNTczkc9d"?>
<x:xmpmeta xmlns:x="adobe:ns:meta/" x:xmptk="Adobe XMP Core 5.6-c138 79.159824, 2016/09/14-01:09:01        ">
   <rdf:RDF xmlns:rdf="http://www.w3.org/1999/02/22-rdf-syntax-ns#">
      <rdf:Description rdf:about=""/>
   </rdf:RDF>
</x:xmpmeta>
                                                                                                    
                                                                                                    
                                                                                                    
                                                                                                    
                                                                                                    
                                                                                                    
                                                                                                    
                                                                                                    
                                                                                                    
                                                                                                    
                                                                                                    
                                                                                                    
                                                                                                    
                                                                                                    
                                                                                                    
                                                                                                    
                                                                                                    
                                                                                                    
                                                                                                    
                                                                                                    
                           
<?xpacket end="w"?></metadata>
<defs>
    <style>
      .cls-1 {
        fill: #0b4477;
        fill-rule: evenodd;
      }
    </style>
  </defs>
  <path id="シェイプ_14" data-name="シェイプ 14" class="cls-1" d="M729.687,1595.25H681.113c-0.745,0-.837.71-0.837,1.47v60a1.29,1.29,0,0,0,1.363,1.28H730.7c0.753,0-.181-0.62-0.181-1.38v-59.9C730.523,1595.96,730.432,1595.25,729.687,1595.25Zm-1.349,60.68H682.462l-0.128-58.61h46.127ZM688.349,1616h12.275a1.365,1.365,0,0,0,1.386-1.35v-11.56c0-.83-0.186-2.09-1.011-2.09l-12.651.01a1.39,1.39,0,0,0-1.34,1.44v12.15A1.373,1.373,0,0,0,688.349,1616Zm0.666-13.01L700,1603l-0.105,10.99L689,1614Zm26.61,3.02h6.98c0.77,0,1.145.05,1.145-.81a0.947,0.947,0,0,0-1.176-1.08H715.44a0.992,0.992,0,0,0-1.24,1.08C714.2,1606.06,714.855,1606.01,715.625,1606.01Zm-8.235,0h2.373c0.771,0,1.436.05,1.436-.81s-0.795-1.08-1.544-1.08h-2.3a0.976,0.976,0,0,0-1.2,1.08C706.15,1606.06,706.619,1606.01,707.39,1606.01Zm0,7h15.215a1.3,1.3,0,0,0,1.145-1.55c0-.86-0.611-0.51-1.364-0.51H707.515c-0.754,0-1.365-.35-1.365.51A1.362,1.362,0,0,0,707.39,1613.01Zm-14.639,11.78a1.065,1.065,0,0,0-1.482.03,0.975,0.975,0,0,0,.034,1.42l3.656,3.46a1.093,1.093,0,0,0,1.483,0l8.238-8a0.985,0.985,0,0,0,0-1.43,1.085,1.085,0,0,0-1.482,0l-7.507,7.3ZM699,1621H689l0.014,11,11-.01-0.063-2.66,2.063-1.93v5.12a1.381,1.381,0,0,1-1.352,1.41l-12.309.06a1.39,1.39,0,0,1-1.34-1.44V1620.4a1.373,1.373,0,0,1,1.34-1.4H700Zm-11,31h13c0.766,0,1.01-.97,1.01-1.77v-11.77a1.359,1.359,0,0,0-1.352-1.37l-12.309-.09a1.367,1.367,0,0,0-1.34,1.4v12.14C687.009,1651.34,687.26,1652,688,1652Zm1.046-12.86,10.9,0.04L700,1650H689ZM715.44,1624h7.134c0.788,0,1.176-.17,1.176-1.02s-0.388-.87-1.176-0.87H715.44c-0.788,0-1.24.01-1.24,0.87S714.652,1624,715.44,1624Zm-8.09,0h2.3c0.749,0,1.544-.17,1.544-1.02s-0.795-.87-1.544-0.87h-2.3c-0.749,0-1.2.01-1.2,0.87S706.6,1624,707.35,1624Zm0.04,7.01h15.215a1.536,1.536,0,0,0,1.395-1.52c0-.73-0.625-0.43-1.395-0.43H707.39c-0.771,0-1.4-.3-1.4.43A1.536,1.536,0,0,0,707.39,1631.01Zm8.235,10.98h6.98a1.041,1.041,0,0,0,1.145-1.24c0-.86-0.388-0.66-1.176-0.66H715.44c-0.788,0-1.24-.2-1.24.66A1.247,1.247,0,0,0,715.625,1641.99Zm-8.235,0h2.373a1.256,1.256,0,0,0,1.436-1.24c0-.86-0.389-0.75-1.2-0.75l-2.526.09c-0.818,0-1.324-.2-1.324.66A1.1,1.1,0,0,0,707.39,1641.99Zm0,6.01h15.215c0.77,0,1.145-.14,1.145-0.99s-0.375-.91-1.145-0.91H707.39c-0.771,0-1.24.05-1.24,0.91S706.619,1648,707.39,1648Zm17.813-54.04,0.521-2.65a1.333,1.333,0,0,0-1.386-1.27l-47.958.09c-0.765,0-1.385,1.58-1.385,2.34v59.98a1.368,1.368,0,0,0,1.371,1.37h1.819l-0.01-2.08h-1.1l0.025-59.63h46.556l-1.04,1.31Zm-5-5,0.521-2.65a1.333,1.333,0,0,0-1.386-1.27l-47.958.09c-0.765,0-1.385,1.58-1.385,2.34v59.98a1.368,1.368,0,0,0,1.371,1.37h1.819l-0.01-2.08h-1.1l0.025-59.63h46.556l-1.04,1.31Z" transform="translate(-670 -1585.03)"/>
</svg>
