<?xml version="1.0" encoding="utf-8"?>
<!-- Generator: Adobe Illustrator 21.0.0, SVG Export Plug-In . SVG Version: 6.00 Build 0)  -->
<svg version="1.1" id="Capa_1" xmlns="http://www.w3.org/2000/svg" xmlns:xlink="http://www.w3.org/1999/xlink" x="0px" y="0px"
	 viewBox="0 0 512 512" style="enable-background:new 0 0 512 512;" xml:space="preserve">
<style type="text/css">
	.st0{fill:#FFFFFF;}
</style>
<g>
	<g>
		<path class="st0" d="M331.1,0H209c-54.4,0-92.1,11.9-126,39.9c-26.7,23-42.6,56.4-42.6,89.4c0,50.8,38.8,104.9,110.6,104.9
			c6.9,0,14.6-0.7,21.3-1.3l-1,2.4c-2.9,6.9-5.6,13.4-5.6,23.6c0,19.8,9.6,32.1,18.8,43.9l1.2,1.5l-2.1,0.1
			c-29.7,2-84.9,5.8-125.2,30.6c-47.6,28.3-51.3,69.5-51.3,81.5C7.1,464,51.4,512,150.4,512c115.1,0,175.3-63.5,175.3-126.2
			c0-46.4-27.2-69.3-56-93.6l-24.3-18.9c-7.5-6.2-16.9-14-16.9-28.4c0-14.1,9.4-23.5,17.6-31.7l0.9-0.9c26.3-20.7,56.1-44.2,56.1-95
			c0-51.1-31.9-77.5-47.3-90.1h40.5c0.5,0,1-0.1,1.4-0.4l34.9-21.9c1-0.6,1.5-1.8,1.1-3C333.3,0.8,332.3,0,331.1,0z M183,484
			c-70.1,0-117.3-32.8-117.3-81.5c0-31.8,19.3-55,57.2-68.7c30.4-10.2,69.6-10.7,70-10.7c6.6,0,10,0,15.3,0.7
			c49.1,34.9,72.7,53.3,72.7,88.2C281,456.4,243.5,484,183,484z M182.4,215.5c-58.9,0-83.3-77.4-83.3-118.8
			c0-21.1,4.8-37.2,14.6-49.4c10.7-13.4,29-22,46.7-22c54,0,83.9,72.6,83.9,122.8c0,7.9,0,32-16.6,48.8
			C216.5,208,198.3,215.5,182.4,215.5z"/>
		<path class="st0" d="M502.2,239.1h-64.3V175c0-1.5-1.2-2.6-2.6-2.6h-27.7c-1.5,0-2.6,1.2-2.6,2.6v64.1h-64c-1.5,0-2.6,1.2-2.6,2.6
			v28c0,1.5,1.2,2.6,2.6,2.6h64V337c0,1.5,1.2,2.6,2.6,2.6h27.7c1.5,0,2.6-1.2,2.6-2.6v-64.5h64.3c1.5,0,2.6-1.2,2.6-2.6v-28
			C504.9,240.3,503.7,239.1,502.2,239.1z"/>
	</g>
</g>
</svg>
