<svg xmlns="http://www.w3.org/2000/svg" viewBox="0 0 619.62 252.1"><defs><style>.cls-1{fill:#eded00;}.cls-2{fill:#3a3a3a;}.cls-3{fill:#0b4477;}</style></defs><title>アセット 1</title><g id="レイヤー_2" data-name="レイヤー 2"><g id="レイヤー_1-2" data-name="レイヤー 1"><path class="cls-1" d="M521.19,77.42c-.09.25.1-.25,0,0Z"/><path class="cls-1" d="M484.93,88.61c-.2-.21.19.21,0,0Z"/><path class="cls-1" d="M218.26,105.06C254.1,84.28,320.8,64.29,359.55,62.93c55.19-1.94,95,1.2,125.38,28.78a20,20,0,0,0,15.36,7.24c7.41,0,13.77-1.86,18.21-13a54.41,54.41,0,0,1,8.76-14.52c11.33-13.18,15-17.16,24.83-23.54a6.92,6.92,0,0,1,10.33,3.62c2.64,8.21,6.76,11.59,12.81,10.36,7.27-1.49,16-47.45,3.95-58.23-9.64-8.61-52.73.16-57.44,6.61-3.22,4.41-.17,9.15,10.17,10.95,3,.52,6.87,2.19,6.45,5.67-.38,3.17-30.5,40.46-54,31.28-42.1-16.72-62.28-20.51-110.53-20.42-47.91.09-139.57,42.28-158.69,61.5C210.54,104,215.93,106.41,218.26,105.06Z"/><path class="cls-2" d="M43.31,206.42c-4.09,17.38-11.05,23.24-27.62,23.24a81.62,81.62,0,0,1-11.1-.87l-1-.13L0,245.36l1.09.18a71.79,71.79,0,0,0,12.05.9c28.8,0,45.17-12.22,51.52-38.47L94,85.53H72.36Z"/><path class="cls-2" d="M160.65,148.76c-7.09,29.89-28,46.41-39.72,46.41-3.86,0-5.74-1.86-5.74-5.67s2.29-14.55,3.58-19.56L131,119.31H109.5L97.64,168.39c-2.27,9.47-3.42,17-3.42,22.35,0,13.84,7.13,20.86,21.2,20.86,13.4,0,26-6.31,35.17-17.5l-4.07,15.55h20.64l21.72-90.35H167.63Z"/><path class="cls-2" d="M321.74,117.36c-14.21,0-27.19,7.35-36.09,20.3-.23-12.91-8.55-20.3-22.9-20.3-13,0-25,6.33-33.78,17.55l3.71-15.6H212.49l-21.72,90.35h21.46l7-29.1c7.56-31.14,29-46.77,38.87-46.77,4.37,0,6.59,2.5,6.59,7.44,0,5.34-2.48,18.8-14.61,67.12l-.33,1.31H271l7-29.45c4.18-17.22,12.17-28.33,18.15-34.61,6.92-7.28,14.78-11.81,20.51-11.81,3.1,0,6.8,1.29,6.8,7.44,0,6.65-4.56,26.72-15.24,67.11l-.35,1.32h21.26l.21-.77c11.29-40.77,15.1-58.16,15.1-68.9C344.43,125,336.79,117.36,321.74,117.36Z"/><path class="cls-2" d="M425.17,116.21c-13.23,0-26,7-35.69,19.47l4.66-16.38H373.25L341.35,252.1h21.46l11.85-49.39c4.86,4.57,13.23,9.34,22.85,9.34,15,0,28.26-7.41,38.34-21.42,10.26-13.95,16.63-31.5,16.63-45.81C452.48,126.1,443,116.21,425.17,116.21Zm-44.44,64.14c0-16.24,19.08-46.43,37.12-46.43,6.89,0,10.7,4.74,11.35,14.1,1,14.75-7.34,30.89-13.6,37.63-5.71,6.15-10.86,10-18.88,10C386.56,195.6,380.73,190,380.73,180.35Z"/><path class="cls-3" d="M578.17,129.55h35.91L619.62,107H583.43l8.12-33.41-29.64,3.76L554.74,107H533.08l-5.89,22.51h22L539.2,171c-1.28,5.12-3.09,14.94-3.09,20.73,0,9.49,4.53,25.4,34.84,25.4,9.69,0,19.92-1.8,27.38-4.8l2.75-1.11-7-20.72L591,191.71a40.76,40.76,0,0,1-15.05,3.1c-10.83,0-10.83-4.48-10.83-6.63,0-1.73.46-5.71,2.66-14.87Z"/><polygon class="cls-3" points="458.46 215.66 487.38 215.66 513.5 107.04 484.57 107.04 458.46 215.66"/></g></g></svg>