<svg xmlns="http://www.w3.org/2000/svg" viewBox="0 0 620.86 253.1">
    <defs><style>.cls-1{fill:#fff;stroke:#fff;stroke-miterlimit:10;}</style></defs><title>アセット 1</title><g id="レイヤー_2" data-name="レイヤー 2"><g id="レイヤー_1-2" data-name="レイヤー 1"><path class="cls-1" d="M521.79,77.92c-.09.25.1-.25,0,0Z"/><path class="cls-1" d="M485.53,89.11c-.2-.21.19.21,0,0Z"/><path class="cls-1" d="M218.86,105.56C254.7,84.78,321.4,64.79,360.14,63.43c55.19-1.94,95,1.2,125.38,28.78a20,20,0,0,0,15.36,7.24c7.41,0,13.77-1.86,18.21-13a54.41,54.41,0,0,1,8.76-14.52c11.33-13.18,15-17.16,24.83-23.54A6.92,6.92,0,0,1,563,52c2.64,8.21,6.76,11.59,12.81,10.36,7.27-1.49,16-47.45,3.95-58.23-9.64-8.61-52.73.16-57.44,6.61-3.22,4.41-.17,9.15,10.17,10.95,3,.52,6.87,2.19,6.45,5.67-.38,3.17-30.5,40.46-54,31.28-42.1-16.72-62.28-20.51-110.53-20.42-47.91.09-139.57,42.28-158.69,61.5C211.14,104.53,216.53,106.91,218.86,105.56Z"/><path class="cls-1" d="M43.91,206.92c-4.09,17.38-11.05,23.24-27.62,23.24a81.62,81.62,0,0,1-11.1-.87l-1-.13L.6,245.86l1.09.18a71.79,71.79,0,0,0,12.05.9c28.8,0,45.17-12.22,51.52-38.47L94.63,86H73Z"/><path class="cls-1" d="M161.25,149.26c-7.09,29.89-28,46.41-39.72,46.41-3.86,0-5.74-1.86-5.74-5.67s2.29-14.55,3.58-19.56l12.19-50.64H110.1L98.24,168.89c-2.27,9.47-3.42,17-3.42,22.35,0,13.84,7.13,20.86,21.2,20.86,13.4,0,26-6.31,35.17-17.5l-4.07,15.55h20.64l21.72-90.35H168.23Z"/><path class="cls-1" d="M322.34,117.86c-14.21,0-27.19,7.35-36.09,20.3-.23-12.91-8.55-20.3-22.9-20.3-13,0-25,6.33-33.78,17.55l3.71-15.6H213.09l-21.72,90.35h21.46l7-29.1c7.56-31.14,29-46.77,38.87-46.77,4.37,0,6.59,2.5,6.59,7.44,0,5.34-2.48,18.8-14.61,67.12l-.33,1.31h21.27l7-29.45c4.18-17.22,12.17-28.33,18.15-34.61,6.92-7.28,14.78-11.81,20.51-11.81,3.1,0,6.8,1.29,6.8,7.44,0,6.65-4.56,26.72-15.24,67.11l-.35,1.32h21.26l.21-.77c11.29-40.77,15.1-58.16,15.1-68.9C345,125.47,337.39,117.86,322.34,117.86Z"/><path class="cls-1" d="M425.77,116.71c-13.23,0-26,7-35.69,19.47l4.66-16.38H373.85L342,252.6h21.46l11.85-49.39c4.86,4.57,13.23,9.34,22.85,9.34,15,0,28.26-7.41,38.34-21.42,10.26-13.95,16.63-31.5,16.63-45.81C453.08,126.6,443.64,116.71,425.77,116.71Zm-44.44,64.14c0-16.24,19.08-46.43,37.12-46.43,6.89,0,10.7,4.74,11.35,14.1,1,14.75-7.34,30.89-13.6,37.63-5.71,6.15-10.86,10-18.88,10C387.16,196.1,381.33,190.54,381.33,180.85Z"/><path class="cls-1" d="M578.77,130.05h35.91l5.54-22.51H584l8.12-33.41-29.64,3.76-7.16,29.65H533.68l-5.89,22.51h22l-10,41.43c-1.28,5.12-3.09,14.94-3.09,20.73,0,9.49,4.53,25.4,34.84,25.4,9.69,0,19.92-1.8,27.38-4.8l2.75-1.11-7-20.72-3.08,1.23a40.76,40.76,0,0,1-15.05,3.1c-10.83,0-10.83-4.48-10.83-6.63,0-1.73.46-5.71,2.66-14.87Z"/><polygon class="cls-1" points="459.06 216.16 487.98 216.16 514.1 107.54 485.17 107.54 459.06 216.16"/></g></g>
</svg>